<?xml version="1.0" encoding="UTF-8"?>
<svg xmlns="http://www.w3.org/2000/svg" xmlns:xlink="http://www.w3.org/1999/xlink" width="41pt" height="40pt" viewBox="0 0 41 40" version="1.1">
  <g id="surface1">
    <path style=" stroke:none;fill-rule:nonzero;fill:rgb(19.607843%,42.352941%,89.803922%);fill-opacity:1;" d="M 20.359375 0.574219 C 20.003906 0.589844 19.660156 0.679688 19.34375 0.832031 L 5.484375 7.484375 C 4.757812 7.832031 4.230469 8.492188 4.050781 9.273438 L 0.632812 24.21875 C 0.472656 24.914062 0.605469 25.644531 0.992188 26.242188 C 1.039062 26.316406 1.089844 26.386719 1.144531 26.453125 L 10.734375 38.433594 C 11.238281 39.0625 12 39.429688 12.804688 39.429688 L 28.1875 39.425781 C 28.992188 39.425781 29.753906 39.058594 30.257812 38.433594 L 39.84375 26.449219 C 40.347656 25.820312 40.539062 25 40.359375 24.214844 L 36.933594 9.273438 C 36.753906 8.488281 36.226562 7.828125 35.5 7.480469 L 21.640625 0.832031 C 21.242188 0.640625 20.800781 0.550781 20.359375 0.574219 Z M 20.359375 0.574219 "/>
    <path style="fill-rule:nonzero;fill:rgb(100%,100%,100%);fill-opacity:1;stroke-width:0.25;stroke-linecap:butt;stroke-linejoin:miter;stroke:rgb(100%,100%,100%);stroke-opacity:1;stroke-miterlimit:4;" d="M 367.757211 274.088142 C 359.628971 274.088142 353.08505 281.354939 353.08505 290.335603 C 353.08505 290.472713 353.153933 290.609822 353.153933 290.746931 C 353.153933 291.912361 353.08505 293.420564 353.08505 294.448884 C 353.2917 299.659041 354.462718 303.635213 355.082668 308.365486 C 356.322569 318.580134 357.35582 327.012361 356.735869 334.89615 C 356.115919 337.844002 353.911651 340.586189 351.982916 342.437166 L 351.638499 348.675642 C 342.890309 349.361189 334.004353 350.732283 325.187279 352.720369 C 287.232535 361.358259 254.512927 380.896345 229.646026 407.2899 C 227.992824 406.193025 225.168606 404.204939 224.342005 403.587947 C 221.724436 403.93072 219.106868 404.684822 215.662699 402.696736 C 209.118777 398.309236 203.194806 392.207869 195.962051 384.872517 C 192.655648 381.376228 190.24473 378.085603 186.318377 374.657869 C 185.422893 373.903767 184.045225 372.875447 183.080858 372.121345 C 179.981106 369.653377 176.39917 368.350838 172.886117 368.213728 C 168.408697 368.076619 164.069044 369.859041 161.244825 373.423884 C 156.216338 379.730916 157.800656 389.397127 164.826761 394.950056 C 164.895645 395.018611 164.964528 395.087166 165.033411 395.15572 C 165.997779 395.909822 167.168796 396.938142 168.06428 397.555134 C 172.266167 400.640095 176.054753 402.216853 180.187756 404.684822 C 188.935946 410.032088 196.168701 414.556697 201.954905 419.903963 C 204.228057 422.303377 204.572474 426.553767 204.916891 428.404744 L 209.600961 432.58658 C 184.458526 470.291658 172.886117 516.9774 179.705572 564.485798 L 173.574951 566.26822 C 171.990633 568.393416 169.717481 571.615486 167.306563 572.643806 C 159.798274 574.974666 151.325618 575.865877 141.130877 576.962752 C 136.30904 577.305525 132.176037 577.099861 127.078667 578.059627 C 125.976532 578.265291 124.392215 578.676619 123.152314 578.950838 C 123.152314 578.950838 123.08343 579.019392 123.014547 579.019392 C 122.945664 579.019392 122.87678 579.019392 122.807897 579.087947 C 114.197474 581.144588 108.686803 589.096931 110.477771 596.843611 C 112.268739 604.658845 120.672512 609.457673 129.351818 607.538142 C 129.420702 607.538142 129.489585 607.538142 129.558468 607.538142 C 129.627352 607.538142 129.696235 607.469587 129.834002 607.401033 C 131.00502 607.195369 132.520454 606.852595 133.622588 606.578377 C 138.582192 605.275838 142.233011 603.287752 146.710431 601.573884 C 156.422988 598.077595 164.413461 595.198298 172.266167 594.032869 C 175.503686 593.827205 178.947855 596.089509 180.669939 597.049275 L 187.007211 595.9524 C 201.679372 641.404158 232.401361 678.14947 271.389356 701.2524 L 268.702904 707.627986 C 269.667272 710.095955 270.700523 713.455134 270.011689 715.923103 C 267.18747 723.258455 262.29675 731.005134 256.786079 739.71158 C 254.099627 743.687752 251.344292 746.772713 248.933373 751.365877 C 248.313423 752.462752 247.624589 754.176619 247.073522 755.342048 C 243.284936 763.362947 246.040271 772.61783 253.273026 776.114119 C 260.505782 779.610408 269.529505 775.908455 273.455858 767.819002 C 273.455858 767.819002 273.455858 767.819002 273.455858 767.750447 C 274.006925 766.653572 274.833526 765.145369 275.315709 764.048494 C 277.382211 759.31822 278.071045 755.273494 279.517596 750.68033 C 283.375065 740.945564 285.51045 730.730916 290.814471 724.35533 C 292.329905 722.641462 294.67194 721.955916 297.151742 721.338923 L 300.458145 715.306111 C 334.417653 728.331502 372.372398 731.827791 410.327142 723.1899 C 419.006449 721.270369 427.341338 718.733845 435.400694 715.648884 C 436.365061 717.294197 438.087146 720.447713 438.56933 721.270369 C 441.049132 722.093025 443.804467 722.504353 446.008735 725.794978 C 450.003971 732.650447 452.759307 740.671345 456.065709 750.406111 C 457.51226 754.999275 458.201094 759.044002 460.267596 763.84283 C 460.749779 764.87115 461.57638 766.447908 462.127447 767.544783 C 465.984917 775.634236 475.077523 779.336189 482.310279 775.8399 C 489.543034 772.343611 492.298369 763.088728 488.578667 755.06783 C 487.958716 753.9024 487.200999 752.188533 486.649932 751.091658 C 484.239013 746.567048 481.483678 743.482088 478.797226 739.437361 C 473.286555 730.79947 468.671369 723.601228 465.84715 716.265877 C 464.607249 712.426814 466.0538 710.095955 466.949284 707.627986 C 466.398217 707.010994 465.227199 703.377595 464.538366 701.732283 C 504.972912 677.806697 534.799417 639.690291 548.851628 595.678181 C 550.711479 595.9524 554.017882 596.500837 555.051132 596.775056 C 557.255401 595.266853 559.321902 593.415877 563.248255 593.690095 C 571.100961 594.855525 579.091433 597.734822 588.735107 601.231111 C 593.281411 602.944978 596.863346 604.933064 601.891834 606.304158 C 602.925084 606.578377 604.440519 606.852595 605.68042 607.058259 C 605.749303 607.126814 605.88707 607.195369 605.955953 607.195369 C 606.024837 607.195369 606.09372 607.195369 606.162603 607.195369 C 614.84191 609.1149 623.245683 604.316072 625.036651 596.500837 C 626.827619 588.754158 621.316948 580.801814 612.637641 578.745173 C 611.397741 578.4024 609.606773 577.922517 608.435755 577.716853 C 603.338385 576.757088 599.205382 576.962752 594.383545 576.619978 C 584.188804 575.523103 575.716148 574.631892 568.138975 572.301033 C 565.108106 571.067048 562.903838 567.43365 561.870587 565.925447 L 555.946616 564.21158 C 559.046369 542.068416 558.219768 519.034041 552.915747 495.931111 C 547.542843 472.622517 538.10582 451.370564 525.500161 432.58658 C 527.015595 431.215486 529.839814 428.678963 530.666414 427.924861 C 530.941948 425.319783 530.735298 422.577595 533.42175 419.629744 C 539.139071 414.282478 546.440709 409.757869 555.188899 404.342048 C 559.321902 401.942634 563.179372 400.365877 567.312375 397.280916 C 568.276742 396.595369 569.585526 395.498494 570.549894 394.675838 C 577.575999 389.054353 579.160317 379.456697 574.13183 373.149666 C 569.103343 366.77408 559.321902 366.225642 552.295797 371.778572 C 551.33143 372.601228 549.953762 373.629548 549.058278 374.38365 C 545.131925 377.811384 542.721007 381.102009 539.414604 384.598298 C 532.181849 391.93365 526.257878 398.035017 519.713956 402.491072 C 516.889737 404.136384 512.687851 403.519392 510.828 403.450838 L 505.248446 407.427009 C 473.562089 374.109431 430.372207 352.857478 383.875923 348.744197 C 383.738156 346.824666 383.531506 343.259822 383.531506 342.231502 C 381.602771 340.380525 379.329619 338.872322 378.709669 334.89615 C 378.089718 327.012361 379.191853 318.580134 380.36287 308.365486 C 381.051704 303.635213 382.222721 299.659041 382.360488 294.448884 C 382.429372 293.283455 382.360488 291.569588 382.360488 290.335603 C 382.360488 281.354939 375.816567 274.088142 367.757211 274.088142 Z M 349.434231 387.477595 L 345.094577 464.190291 L 344.750161 464.395955 C 344.474627 471.251423 338.826189 476.735798 331.868968 476.735798 C 329.044749 476.735798 326.42718 475.776033 324.291795 474.26783 L 324.154029 474.336384 L 261.263499 429.707283 C 280.61973 410.717634 305.348865 396.663923 333.797702 390.151228 C 339.03284 388.985798 344.267977 388.094588 349.434231 387.477595 Z M 386.080191 387.477595 C 419.350866 391.590877 450.141738 406.672908 473.699856 429.775838 L 411.222626 474.062166 L 411.015976 473.993611 C 405.436422 478.038338 397.6526 477.010017 393.312946 471.594197 C 391.521978 469.400447 390.626494 466.726814 390.488728 464.121736 L 390.419844 464.121736 Z M 238.463099 458.363142 L 295.911841 509.779158 L 295.842958 510.053377 C 301.009212 514.577986 301.766929 522.39322 297.427276 527.809041 C 295.705191 530.002791 293.294273 531.510994 290.745587 532.196541 L 290.676704 532.470759 L 217.10925 553.722713 C 213.320664 519.445369 221.38002 486.127791 238.463099 458.363142 Z M 496.638023 458.431697 C 505.110679 472.211189 511.585717 487.704548 515.443186 504.431892 C 519.231773 520.953572 520.19614 537.475252 518.611822 553.448494 L 444.631068 532.127986 L 444.562184 531.853767 C 437.949379 530.002791 433.88526 523.284431 435.400694 516.497517 C 436.020645 513.75533 437.536079 511.42447 439.533697 509.710603 L 439.464814 509.504939 Z M 355.978152 513.686775 L 379.467386 513.686775 L 394.139547 531.990877 L 388.835526 554.819588 L 367.757211 564.965681 L 346.541128 554.751033 L 341.305991 531.990877 Z M 431.405458 576.277205 C 432.369825 576.20865 433.403076 576.345759 434.367443 576.482869 L 434.50521 576.345759 L 510.62135 589.234041 C 499.462241 620.494978 478.177276 647.642634 449.659555 665.809627 L 420.108583 594.375642 L 420.177466 594.307088 C 417.491014 588.000056 420.177466 580.59615 426.445854 577.579744 C 428.030172 576.757088 429.752257 576.345759 431.405458 576.277205 Z M 303.489013 576.619978 C 309.275218 576.688533 314.510355 580.733259 315.888023 586.628963 C 316.507973 589.37115 316.163556 592.113338 315.130305 594.581306 L 315.336955 594.855525 L 286.130401 665.535408 C 258.783697 647.985408 236.947664 621.728963 225.306372 589.439705 L 300.802561 576.619978 L 300.940328 576.825642 C 301.766929 576.619978 302.662413 576.551423 303.489013 576.619978 Z M 367.275027 607.538142 C 369.272645 607.469587 371.339147 607.880916 373.267882 608.840681 C 375.88545 610.074666 377.814185 611.994197 379.054086 614.325056 L 379.329619 614.325056 L 416.59553 681.577205 C 411.773693 683.222517 406.81409 684.593611 401.716719 685.759041 C 373.267882 692.203181 344.887927 690.28365 319.194425 681.50865 L 356.322569 614.393611 L 356.391452 614.393611 C 358.595721 610.211775 362.797607 607.743806 367.275027 607.538142 Z M 367.275027 607.538142 " transform="matrix(0.0567082,0,0,0.0569801,-0.358741,-9.957402)"/>
  </g>
</svg>
