<?xml version="1.0" encoding="UTF-8" standalone="no"?>
<svg id="Layer_1" style="enable-background:new 0 0 398.3 92.5" xmlns="http://www.w3.org/2000/svg" xml:space="preserve" viewBox="0 0 398.3 92.5" width="166" height="40" version="1.1" y="0px" x="0px" xmlns:xlink="http://www.w3.org/1999/xlink">
<style type="text/css">
	.st0{fill:#4279F4;}
	.st1{fill:#0028AA;}
	.st2{fill:#014BD1;}
	.st3{fill:#BEDCFF;}
	.st4{fill:#6CA1FF;}
	.st5{fill:#A1C3FF;}
	.st6{fill:#4279F4;stroke:#4279F4;stroke-width:3.1966;stroke-miterlimit:10;}
	.st7{fill:#0028AA;stroke:#0028AA;stroke-width:3.1966;stroke-miterlimit:10;}
</style>
	<path class="st0" d="m26.3 31.4l2 51.1 36.9-47.1c0.6-0.7 1.4-1.2 2.3-1.3s1.8 0.2 2.5 0.7l23 18.5-7.5-32.8-59.2 10.9z"/>
	<polygon points="29.6 91.9 62.4 91.9 42.3 75.8" class="st1"/>
	<polygon points="68.5 42.3 46.5 70.4 69.9 89.2 92.2 61.3" class="st2"/>
	<polygon points="20.2 26.5 20.2 26.5 39.5 2.2 8.3 17.3 0.6 51" class="st3"/>
	<polygon points="1 61.4 21.7 87.4 19.8 37.9" class="st4"/>
	<polygon points="79.6 14.7 49.7 0.3 31.1 23.6" class="st5"/>
	<path class="st6" d="m122.2 69.6v-44.7h5.7v23.4l20.5-23.4h6.4l-17.4 19.7 19 25.1h-6.8l-15.9-20.8-5.8 6.6v14.1h-5.7z"/>
	<path class="st6" d="m162.2 59.9v-22.2h5.4v22.4c0 1.8 0.8 3.2 2.4 4.2s3.4 1.5 5.5 1.5 4-0.5 5.5-1.5c1.6-1 2.3-2.4 2.3-4.2v-22.4h5.4v22.2c0 3.3-1.4 6-4.1 7.9s-5.8 2.9-9.2 2.9c-3.4 0-6.5-0.9-9.2-2.8-2.6-2-4-4.7-4-8z"/>
	<path class="st6" d="m198.1 69.6v-48h5.4v16.8c3.3-1.1 6.4-1.7 9.3-1.7 2.3 0 4.4 0.5 6.2 1.4s3.2 2.2 4.2 3.7 1.7 3.2 2.2 5.1c0.5 1.8 0.7 3.7 0.7 5.6 0 5.6-1.5 9.9-4.4 12.8s-7.5 4.4-13.8 4.4h-9.8zm5.4-4.8h4.5c4.5 0 7.7-1 9.7-3s3-5.1 3-9.5c0-2.9-0.6-5.4-1.9-7.5s-3.3-3.2-6-3.2c-3.6 0-6.7 0.5-9.3 1.5v21.7z"/>
	<path class="st6" d="m233 53.6c0-5.1 1.4-9.2 4.1-12.3s6.3-4.6 10.8-4.6c8.9 0 13.4 6.3 13.4 18.9h-22.8c0.2 2.6 1.2 5 2.9 7.1s4.4 3.1 7.9 3.1c4.1 0 7.6-0.7 10.6-2v5c-3.2 1.2-6.5 1.9-9.9 1.9-2.9 0-5.5-0.5-7.7-1.4s-4-2.2-5.3-3.8-2.3-3.4-3-5.4-1-4.2-1-6.5zm5.6-2.1h17.3c-0.3-2.9-1.1-5.3-2.4-7.1-1.3-1.9-3.2-2.8-5.6-2.8s-4.5 0.9-6.2 2.7-2.8 4.2-3.1 7.2z"/>
	<path class="st7" d="m267.9 42.5v-4.9h5v-7.6c0-2.5 0.8-4.5 2.3-6s3.4-2.3 5.7-2.3h7.9v4.9h-5c-2.2 0-3.7 0.4-4.4 1.3s-1.1 2.5-1.1 5v4.7h8.5v4.9h-8.5v27.1h-5.4v-27.1h-5z"/>
	<path class="st7" d="m295.9 69.6v-47.9h5.4v47.9h-5.4z"/>
	<path class="st7" d="m315 65.7c-3.2-3.3-4.8-7.3-4.8-12 0-4.8 1.6-8.8 4.8-12 3.2-3.3 7.3-4.9 12.3-4.9s9.1 1.6 12.3 4.9 4.8 7.3 4.8 12-1.6 8.7-4.8 12-7.3 4.9-12.3 4.9-9.1-1.6-12.3-4.9zm3.9-20.7c-2.1 2.3-3.2 5.2-3.2 8.6s1.1 6.3 3.2 8.6 5 3.5 8.5 3.5 6.3-1.2 8.5-3.5 3.2-5.2 3.2-8.6-1.1-6.3-3.2-8.6c-2.2-2.3-5-3.5-8.5-3.5-3.6 0.1-6.4 1.2-8.5 3.5z"/>
	<path class="st7" d="m349.1 37.7h5.7l7.3 25.3 7.4-25.3h5.4l7.3 25.3 7.4-25.3h5.7l-10.1 32h-6.1l-6.8-24.6-6.8 24.6h-6.5l-9.9-32z"/>
</svg>
