<?xml version="1.0" standalone="no"?>
<!DOCTYPE svg PUBLIC "-//W3C//DTD SVG 20010904//EN" "http://www.w3.org/TR/2001/REC-SVG-20010904/DTD/svg10.dtd">
<svg version="1.0"
  xmlns="http://www.w3.org/2000/svg" width="130.000000pt" height="34.468000pt" viewBox="0 0 875.000000 232.000000" preserveAspectRatio="xMidYMid meet">
  <metadata>Created by potrace 1.16, written by Peter Selinger 2001-2019</metadata>
  <g transform="translate(0.000000,232.000000) scale(0.100000,-0.100000)" fill="#000000" stroke="none">
    <path d="M2271 2099 c-51 -26 -81 -70 -81 -121 0 -61 54 -103 155 -120 15 -2
8 -10 -32 -36 -71 -46 -165 -148 -198 -217 -34 -69 -39 -152 -12 -207 37 -74
139 -119 275 -121 50 -1 82 -5 82 -12 0 -21 -189 -193 -320 -291 -74 -55 -221
-157 -326 -226 -358 -236 -505 -388 -508 -524 -1 -55 17 -87 68 -115 52 -30
139 -32 180 -6 35 23 45 52 52 146 25 305 294 560 824 781 215 89 310 141 378
204 157 145 0 283 -247 217 -67 -18 -89 -20 -140 -12 -86 14 -153 54 -191 116
-28 45 -25 78 11 119 57 66 223 106 435 106 116 0 156 10 100 24 -13 3 -47 33
-76 65 -28 33 -60 63 -71 66 -11 4 -19 15 -19 29 0 33 -39 86 -89 121 -38 26
-52 30 -124 33 -69 3 -89 -1 -126 -19z m221 -26 c41 -24 78 -77 78 -113 0 -24
-6 -29 -57 -44 -32 -9 -64 -20 -72 -23 -11 -4 -10 0 2 18 21 30 22 60 1 85
-15 19 -16 19 -9 -1 4 -11 9 -26 12 -32 3 -7 -9 -26 -25 -43 -25 -24 -39 -30
-75 -30 -52 0 -107 32 -121 71 -12 36 16 90 62 118 31 18 48 21 104 18 41 -3
79 -12 100 -24z"/>
    <path d="M1685 1763 c-50 -6 -115 -34 -115 -48 0 -19 32 -35 69 -35 25 0 266
41 466 78 38 7 -4 10 -170 9 -121 0 -233 -2 -250 -4z"/>
    <path d="M2100 1743 c-88 -9 -316 -55 -391 -79 -108 -34 -155 -60 -170 -96
-26 -64 41 -78 112 -24 86 68 276 146 428 177 34 7 61 17 61 21 0 4 -1 7 -2 6
-2 0 -19 -3 -38 -5z"/>
    <path d="M2017 1680 c-215 -72 -370 -168 -383 -236 -12 -65 66 -85 111 -29 64
82 99 114 180 168 50 32 120 74 158 93 61 31 79 44 60 44 -5 0 -61 -18 -126
-40z"/>
    <path d="M1268 1650 c-30 -19 -21 -35 59 -101 43 -35 113 -97 155 -138 43 -40
78 -70 78 -66 0 13 -146 228 -181 268 -36 40 -82 55 -111 37z"/>
    <path d="M2034 1624 c-180 -108 -297 -242 -264 -304 12 -23 48 -26 73 -7 9 6
26 39 37 72 11 33 36 83 56 112 33 47 127 135 157 146 6 2 9 7 6 11 -3 3 -32
-10 -65 -30z"/>
    <path d="M1087 1603 c-4 -3 -7 -15 -7 -25 0 -13 29 -32 103 -69 84 -43 236
-126 357 -196 32 -19 -74 82 -165 157 -118 97 -192 140 -240 140 -23 0 -45 -3
-48 -7z"/>
    <path d="M2029 1551 c-68 -74 -138 -191 -141 -234 -3 -28 0 -32 24 -35 30 -4
58 28 58 65 0 36 38 126 81 193 22 34 38 64 36 67 -3 2 -29 -23 -58 -56z"/>
    <path d="M925 1536 c-38 -28 -7 -48 156 -103 85 -29 229 -80 321 -113 92 -33
170 -60 175 -60 11 0 -157 99 -281 165 -192 102 -328 143 -371 111z"/>
    <path d="M4210 1498 c-20 -6 -62 -71 -190 -293 -90 -157 -169 -284 -174 -282
-6 2 -81 125 -166 274 -86 149 -161 278 -169 287 -18 22 -74 21 -94 -2 -15
-17 -17 -59 -17 -395 l0 -377 65 0 65 0 0 226 c0 156 3 225 11 222 6 -2 66
-100 133 -218 80 -140 132 -220 149 -230 47 -27 65 -7 192 216 65 115 123 215
129 223 8 10 12 -45 16 -210 l5 -224 68 -3 67 -3 0 379 c0 348 -1 380 -17 394
-26 22 -45 26 -73 16z"/>
    <path d="M4462 1243 c3 -248 3 -248 31 -309 52 -112 158 -190 291 -215 32 -6
138 -9 238 -7 175 3 180 4 199 27 18 22 19 44 19 387 l0 364 -70 0 -70 0 -2
-317 -3 -318 -156 0 c-153 0 -156 0 -214 30 -45 23 -66 42 -90 79 l-30 49 -5
236 -5 236 -68 3 -69 3 4 -248z"/>
    <path d="M5414 1477 c-2 -7 -3 -174 -2 -370 3 -326 4 -358 21 -374 16 -17 45
-18 355 -18 l337 0 3 67 3 68 -288 2 -288 3 -3 318 -2 317 -65 0 c-45 0 -67
-4 -71 -13z"/>
    <path d="M6064 1476 c-3 -7 -4 -35 -2 -62 l3 -49 135 -2 c74 -2 145 -5 158 -8
l22 -5 0 -321 0 -320 68 3 67 3 5 320 5 320 153 3 152 3 0 64 0 65 -380 0
c-314 0 -382 -2 -386 -14z"/>
    <path d="M6930 1262 c0 -257 8 -302 66 -388 41 -61 104 -108 182 -137 49 -18
86 -21 255 -25 214 -4 246 1 266 44 7 17 11 137 11 379 l0 355 -70 0 -70 0 -2
-317 -3 -318 -155 0 c-152 0 -156 1 -215 30 -72 36 -110 86 -125 164 -5 29
-10 141 -10 247 l0 194 -65 0 -65 0 0 -228z"/>
    <path d="M7975 1471 c-80 -37 -125 -111 -125 -206 0 -94 42 -164 125 -208 36
-19 61 -22 257 -27 243 -6 245 -6 255 -77 4 -32 1 -45 -20 -69 l-25 -29 -294
-5 -293 -5 0 -65 0 -65 270 -3 c299 -4 351 3 414 48 101 73 117 239 33 333
-64 70 -90 77 -308 77 -248 0 -274 9 -274 95 0 42 12 69 37 81 10 5 133 11
273 14 l255 5 0 60 0 60 -270 2 c-245 3 -274 1 -310 -16z"/>
    <path d="M780 1455 c-33 -40 29 -72 203 -105 65 -13 116 -25 113 -27 -3 -3
-38 1 -78 8 -90 16 -258 16 -316 0 -52 -15 -53 -35 -4 -64 28 -16 82 -24 330
-43 313 -24 602 -53 615 -61 4 -2 7 0 7 5 0 5 -12 12 -27 16 -67 15 -387 105
-375 105 6 1 87 -17 178 -39 92 -22 171 -40 178 -40 17 1 -160 74 -354 147
-274 102 -438 137 -470 98z"/>
    <path d="M1999 1230 c-163 -7 -227 -20 -186 -36 19 -7 184 1 267 12 25 4 43 4
40 1 -3 -2 -75 -15 -160 -27 -152 -21 -191 -33 -156 -46 39 -15 425 60 451 88
7 7 0 9 -23 4 -21 -3 -31 -2 -27 4 4 6 -4 9 -17 8 -13 0 -98 -4 -189 -8z"/>
    <path d="M2335 1179 c-38 -26 -118 -73 -178 -106 -154 -83 -227 -130 -227
-148 0 -62 243 74 420 234 36 32 63 61 60 63 -3 2 -36 -17 -75 -43z"/>
    <path d="M620 1207 c-28 -7 -45 -18 -45 -27 0 -21 62 -49 115 -51 68 -3 941
14 936 18 -4 4 -196 27 -411 48 -221 22 -537 28 -595 12z"/>
    <path d="M2260 1179 c-25 -11 -115 -47 -200 -80 -173 -67 -240 -102 -240 -126
0 -26 60 -10 183 50 215 104 420 228 257 156z"/>
    <path d="M1510 1123 c-454 -6 -957 -23 -993 -33 -84 -25 -7 -59 133 -59 52 0
248 13 435 29 187 16 406 35 488 42 81 6 147 15 147 20 0 4 -1 7 -2 6 -2 -2
-95 -4 -208 -5z"/>
    <path d="M1345 1064 c-432 -33 -720 -71 -856 -113 -74 -23 -102 -46 -78 -62
24 -17 225 -2 354 26 250 54 354 74 579 110 342 56 343 66 1 39z"/>
    <path d="M1570 1033 c-14 -2 -113 -18 -220 -34 -502 -76 -822 -167 -845 -240
-17 -51 16 -46 384 62 435 128 652 189 693 195 21 4 38 10 38 15 0 9 -6 9 -50
2z"/>
    <path d="M1220 875 c-547 -144 -679 -189 -688 -236 -3 -18 37 -39 74 -39 34 0
132 35 629 222 231 86 411 157 400 157 -11 0 -198 -47 -415 -104z"/>
    <path d="M1470 849 c-102 -38 -295 -107 -430 -155 -270 -94 -354 -131 -395
-174 -32 -33 -28 -55 10 -70 46 -18 173 35 595 248 223 112 407 206 409 208
17 16 -27 3 -189 -57z"/>
    <path d="M1565 784 c-77 -36 -257 -118 -400 -181 -343 -153 -405 -194 -405
-266 0 -29 1 -30 40 -24 46 6 156 56 275 124 62 36 624 393 644 410 18 14 -34
-7 -154 -63z"/>
    <path d="M1813 825 c-11 -8 -154 -88 -316 -179 -162 -90 -333 -189 -380 -220
-139 -93 -203 -176 -166 -213 21 -21 112 20 245 109 68 46 572 446 629 499 23
23 18 25 -12 4z"/>
    <path d="M1912 586 c-80 -243 -88 -284 -70 -356 11 -45 18 -56 41 -64 24 -9
31 -6 55 17 26 27 27 31 25 130 0 56 3 182 9 280 5 98 8 180 7 181 -2 2 -32
-82 -67 -188z"/>
    <path d="M1890 693 c-84 -93 -188 -251 -216 -329 -32 -86 -33 -185 -3 -215 48
-48 83 0 110 151 28 164 72 295 126 377 24 37 47 71 49 76 16 24 -12 -2 -66
-60z"/>
    <path d="M2015 593 c-13 -264 6 -383 62 -391 48 -7 54 67 15 209 -11 42 -29
135 -39 207 -10 73 -21 132 -24 132 -4 0 -10 -71 -14 -157z"/>
  </g>
</svg>
