<?xml version="1.0" encoding="utf-8"?>
<!-- Generator: Adobe Illustrator 23.0.3, SVG Export Plug-In . SVG Version: 6.00 Build 0)  -->
<svg version="1.1" id="Ebene_1" xmlns="http://www.w3.org/2000/svg" xmlns:xlink="http://www.w3.org/1999/xlink" x="0px" y="0px"
	 viewBox="0 0 2300 500" style="enable-background:new 0 0 2300 500;" xml:space="preserve">
<style type="text/css">
	.st0{fill:#1C4671;}
	.st1{clip-path:url(#SVGID_2_);}
	.st2{fill:url(#SVGID_3_);}
	.st3{fill:url(#SVGID_4_);}
	.st4{clip-path:url(#SVGID_6_);fill:url(#SVGID_7_);}
	.st5{clip-path:url(#SVGID_9_);fill:url(#SVGID_10_);}
	.st6{clip-path:url(#SVGID_12_);}
	.st7{fill:url(#SVGID_13_);}
	.st8{fill:url(#SVGID_14_);}
	.st9{clip-path:url(#SVGID_16_);fill:url(#SVGID_17_);}
	.st10{clip-path:url(#SVGID_19_);fill:url(#SVGID_20_);}
	.st11{clip-path:url(#SVGID_22_);fill:url(#SVGID_23_);}
	.st12{fill:#FFFFFF;}
</style>
<g>
	<path class="st0" d="M805.2,270.2l-25.8,27.3v70.8H740V141.1h39.4v106.5l21.9-27l66.5-79.6h47.7l-84.4,100.6l89.3,126.5h-46.8
		L805.2,270.2z"/>
	<path class="st0" d="M1030.5,351.7c-11.1,13.1-27,19.7-47.4,19.7c-18.3,0-32.2-5.4-41.5-16.1c-9.4-10.7-14.1-26.3-14.1-46.5V199.5
		h37.9v108.9c0,21.5,8.9,32.2,26.7,32.2c18.4,0,30.9-6.6,37.2-19.8V199.5h37.9v168.8h-35.7L1030.5,351.7z"/>
	<path class="st0" d="M1249.1,285.5c0,26.3-5.9,47-17.6,62.6c-11.7,15.5-27.8,23.3-48.3,23.3c-19.8,0-35.1-7.1-46.2-21.4l-1.9,18.3
		h-34.3V128.7h37.9v87.1c10.9-12.9,25.7-19.4,44.1-19.4c20.6,0,36.7,7.7,48.5,23s17.7,36.6,17.7,64.1v2.1H1249.1z M1211.3,282.3
		c0-18.3-3.2-32.1-9.7-41.2c-6.5-9.2-15.8-13.8-28.1-13.8c-16.5,0-28,7.2-34.6,21.6v69.6c6.8,14.7,18.4,22,34.9,22
		c11.9,0,21-4.4,27.5-13.3c6.5-8.9,9.8-22.2,10-40.1L1211.3,282.3L1211.3,282.3z"/>
	<path class="st0" d="M1350.2,371.4c-24.1,0-43.5-7.6-58.4-22.7c-14.9-15.2-22.4-35.2-22.4-60.4v-4.7c0-16.9,3.3-32,9.8-45.1
		c6.5-13.3,15.6-23.6,27.4-31c11.8-7.4,24.9-11.1,39.3-11.1c23,0,40.7,7.3,53.3,22c12.6,14.7,18.8,35.4,18.8,62.2v15.3h-110.3
		c1.1,14,5.8,25,14,33c8.2,8.1,18.5,12.2,30.9,12.2c17.4,0,31.6-7,42.4-21.1l20.5,19.5c-6.8,10.1-15.8,17.9-27.1,23.5
		C1376.9,368.6,1364.2,371.4,1350.2,371.4z M1345.7,226.7c-10.4,0-18.8,3.6-25.2,10.9c-6.4,7.3-10.5,17.4-12.3,30.5h72.2v-2.8
		c-0.8-12.7-4.2-22.3-10.2-28.8C1364.3,230,1356.2,226.7,1345.7,226.7z"/>
	<path class="st0" d="M1532.1,234.1c-5-0.8-10.2-1.3-15.5-1.3c-17.4,0-29.1,6.7-35.1,20v115.4h-37.9V199.5h36.2l0.9,18.9
		c9.2-14.7,21.9-22,38-22c5.4,0,9.9,0.7,13.4,2.2L1532.1,234.1z"/>
	<path class="st0" d="M1586.6,199.5l1.1,17.7c11.9-13.9,28.1-20.8,48.7-20.8c22.6,0,38,8.6,46.3,25.9c12.3-17.3,29.6-25.9,51.8-25.9
		c18.6,0,32.5,5.2,41.5,15.5c9.1,10.3,13.8,25.5,14,45.5v110.9h-37.9V258.5c0-10.7-2.3-18.6-7-23.6c-4.7-5-12.4-7.5-23.3-7.5
		c-8.6,0-15.7,2.3-21.2,7c-5.5,4.6-9.3,10.7-11.5,18.2l0.2,115.7h-37.9V257.2c-0.5-19.9-10.7-29.8-30.5-29.8
		c-15.2,0-26,6.2-32.3,18.6v122.3h-37.9V199.5H1586.6z"/>
	<path class="st0" d="M1923,368.2c-1.7-3.2-3.1-8.5-4.4-15.8c-12.1,12.6-26.9,18.9-44.3,18.9c-17,0-30.8-4.8-41.5-14.5
		c-10.7-9.7-16.1-21.7-16.1-35.8c0-18,6.7-31.8,20.1-41.4c13.4-9.6,32.5-14.5,57.3-14.5h23.3V254c0-8.8-2.4-15.8-7.3-21
		c-4.9-5.3-12.3-7.9-22.3-7.9c-8.6,0-15.7,2.2-21.3,6.5c-5.5,4.3-8.3,9.8-8.3,16.5h-37.9c0-9.3,3.1-17.9,9.2-26
		c6.1-8.1,14.5-14.4,25.1-19c10.6-4.6,22.4-6.9,35.3-6.9c19.8,0,35.5,5,47.2,14.9c11.8,9.9,17.8,23.9,18.1,41.9v76.2
		c0,15.2,2.1,27.3,6.4,36.3v2.7L1923,368.2L1923,368.2L1923,368.2z M1881.3,341c7.5,0,14.6-1.8,21.2-5.5c6.6-3.6,11.6-8.5,14.9-14.7
		v-31.9h-20.5c-14.1,0-24.6,2.4-31.7,7.3c-7.1,4.9-10.6,11.8-10.6,20.8c0,7.3,2.4,13.1,7.3,17.4C1866.8,338.8,1873.3,341,1881.3,341
		z"/>
	<path class="st0" d="M2036.5,158.4v41h29.8v28.1h-29.8v94.3c0,6.5,1.3,11.1,3.8,14c2.6,2.9,7.1,4.3,13.7,4.3
		c4.4,0,8.8-0.5,13.3-1.6v29.4c-8.6,2.4-17,3.6-25,3.6c-29.2,0-43.7-16.1-43.7-48.2v-95.7h-27.8v-28.1h27.8v-41L2036.5,158.4
		L2036.5,158.4z"/>
	<path class="st0" d="M2086.9,155.6c0-5.8,1.8-10.7,5.5-14.5c3.7-3.9,9-5.8,15.9-5.8c6.9,0,12.2,1.9,15.9,5.8
		c3.8,3.9,5.6,8.7,5.6,14.5c0,5.7-1.9,10.5-5.6,14.3c-3.8,3.8-9.1,5.7-15.9,5.7s-12.2-1.9-15.9-5.7
		C2088.8,166.1,2086.9,161.3,2086.9,155.6z M2127.2,368.2h-37.9V199.5h37.9V368.2z"/>
	<path class="st0" d="M2230.7,341.2c9.5,0,17.3-2.8,23.6-8.3c6.3-5.5,9.6-12.3,10-20.5h35.7c-0.4,10.5-3.7,20.3-9.8,29.5
		c-6.1,9.1-14.5,16.3-25,21.6c-10.5,5.3-21.9,8-34,8c-23.6,0-42.3-7.7-56.2-23s-20.8-36.4-20.8-63.3v-3.9c0-25.7,6.9-46.2,20.6-61.7
		s32.5-23.2,56.2-23.2c20.1,0,36.4,5.9,49,17.6c12.6,11.7,19.3,27.1,19.9,46.1h-35.7c-0.4-9.7-3.7-17.7-9.9-23.9
		c-6.2-6.3-14.1-9.4-23.7-9.4c-12.3,0-21.8,4.5-28.4,13.4c-6.7,8.9-10.1,22.4-10.2,40.4v6.1c0,18.3,3.3,32,9.9,40.9
		C2208.7,336.6,2218.2,341.2,2230.7,341.2z"/>
</g>
<g>
	<g>
		<g>
			<g>
				<defs>
					<path id="SVGID_1_" d="M594.6,299.2c0.1,0,0.2-0.1,0.3-0.1c3.2-13.9,4.9-28.3,4.9-43.1c0-109-34.9-197.3-196-197.3
						c-5.7,0-6.4-0.4-12.1-0.1c-20.8-10.2-103.1-78-211.6-53.2c71.7,19.9,74.9,73.9,70.3,88.2c-51.9,21.3-87.2,48-118.9,105.4
						c-16.3,28-35.2,48.3-65.3,48.3c-29,0-42.5-21.8-58.9-55.4c-20.1,20.2,7.3,52.4,7.3,68.8c0,18-25.7,55.8-7.2,74.4
						c16.2-36.2,28.3-52.4,58.8-52.4c28.2,0,45.7-0.2,62.2,24.9c31.4,59.7,74,92.6,126.4,114.6c1.9,13.4,6,52.2-62.4,72
						c80.6,23.3,166.4-29.8,189.8-41.2c6.1,0.3,12.2,0.6,18.4,0.6l0,0c103.5,0,161.7-36.6,165.6-88.3c-4.8,0.6-9.7,0.9-14.6,1.1
						c0.9-5.8,1.6-13,2.6-23c-3.2,7.5-6.9,15-11.8,23.2c-8.6,0-17-0.6-25.3-1.8c1.4-7.3,2.4-16.1,3.7-28.5c-3.7,8.6-8,17.2-14,26.8
						c-6.9-1.3-13.7-3-20.4-5c1.9-8,3-17.8,4.6-32.5c-3.9,9.2-8.6,18.3-15.3,28.9c-6.9-2.6-13.6-5.5-20.1-8.8
						c1.5-7.4,2.5-16.4,3.9-29.2c-3.4,8-7.3,15.8-12.6,24.5c-47.5-27.1-82.6-73.6-94.8-128.8c26.9,48.1,73.2,83.7,128.3,96
						c-2.5,10.8-5.4,19.8-8.8,28.3c9.3-11.5,15.3-19.2,19.6-26.2c6,1,12.1,1.7,18.2,2.1c-2.7,12.7-5.9,22.8-9.7,32.4
						c11.8-14.7,18.4-23.1,22.8-32c0.2,0,0.4,0,0.6,0c7,0,13.8-0.4,20.6-1.1c-3,15.1-6.4,26.5-10.7,37.3c15-18.7,21.6-27.3,26-39.5
						c6.4-1.2,12.6-2.7,18.8-4.5c-3.3,18.8-7.1,32-12,44.4C584.6,325.7,590.1,318.2,594.6,299.2z"/>
				</defs>
				<clipPath id="SVGID_2_">
					<use xlink:href="#SVGID_1_"  style="overflow:visible;"/>
				</clipPath>
				<g class="st1">
					
						<linearGradient id="SVGID_3_" gradientUnits="userSpaceOnUse" x1="929.6864" y1="894.6575" x2="1344.8251" y2="1042.9213" gradientTransform="matrix(1.1693 0 0 1.1771 -904.7677 -860.7156)">
						<stop  offset="1.779359e-03" style="stop-color:#3DB2C6"/>
						<stop  offset="0.5" style="stop-color:#0C5E92"/>
						<stop  offset="1" style="stop-color:#1C4671"/>
					</linearGradient>
					<path class="st2" d="M369,145.2c-16.2,2.5-32.8,3.8-49.7,3.8c-43.9,0-86.8-9.3-125-25.2C177.8,136,163.5,151,150,169.1
						c68.6,31.6,124.8,86.9,157.6,155.2c83.1,5.9,159.1,44.3,213.4,104.2c27.7-15.6,43.1-37.6,45.1-63.4c-4.8,0.6-9.7,0.9-14.6,1.1
						c0.9-5.8,1.6-13,2.6-23c-3.2,7.5-6.9,15-11.8,23.2c-8.6,0-17-0.6-25.3-1.8c1.4-7.3,2.4-16.1,3.7-28.5c-3.7,8.6-8,17.2-14,26.8
						c-6.9-1.3-13.7-3-20.4-5c1.9-8,3-17.8,4.6-32.5c-3.9,9.3-8.6,18.3-15.3,28.9c-6.9-2.6-13.6-5.5-20.1-8.8
						c1.5-7.4,2.5-16.4,3.9-29.2c-3.4,8-7.3,15.8-12.6,24.5c-47.5-27.1-82.6-73.6-94.8-128.8c26.9,48.1,73.2,83.7,128.3,96
						c-2.5,10.8-5.4,19.8-8.8,28.3c9.3-11.5,15.3-19.2,19.6-26.2c6,1,12.1,1.7,18.2,2.1c-2.7,12.7-5.9,22.8-9.7,32.4
						c11.8-14.7,18.4-23.1,22.8-31.9c0.2,0,0.4,0,0.6,0c7,0,13.8-0.4,20.6-1.1c-3,15.1-6.4,26.5-10.7,37.3
						c15-18.7,21.6-27.3,26-39.5c6.4-1.2,12.6-2.7,18.8-4.5c-3.3,18.8-7.1,32-12,44.4c19.1-23.7,24.5-31.2,29.1-50.3
						c0.1,0,0.2-0.1,0.3-0.1c1.4-6.1,2.5-12.4,3.3-18.8c-3.6-0.2-7.3-0.5-10.9-0.9C494.4,270.3,415.9,218.5,369,145.2z"/>
					
						<radialGradient id="SVGID_4_" cx="1188.4559" cy="1104.3217" r="393.0128" gradientTransform="matrix(1.1693 0 0 1.1771 -904.7677 -860.7156)" gradientUnits="userSpaceOnUse">
						<stop  offset="0" style="stop-color:#0C5E92;stop-opacity:0"/>
						<stop  offset="0.8587" style="stop-color:#0C5E92;stop-opacity:0.8587"/>
						<stop  offset="1" style="stop-color:#0C5E92"/>
					</radialGradient>
					<path class="st3" d="M369,145.2c-16.2,2.5-32.8,3.8-49.7,3.8c-43.9,0-86.8-9.3-125-25.2C177.8,136,163.5,151,150,169.1
						c68.6,31.6,124.8,86.9,157.6,155.2c83.1,5.9,159.1,44.3,213.4,104.2c27.7-15.6,43.1-37.6,45.1-63.4c-4.8,0.6-9.7,0.9-14.6,1.1
						c0.9-5.8,1.6-13,2.6-23c-3.2,7.5-6.9,15-11.8,23.2c-8.6,0-17-0.6-25.3-1.8c1.4-7.3,2.4-16.1,3.7-28.5c-3.7,8.6-8,17.2-14,26.8
						c-6.9-1.3-13.7-3-20.4-5c1.9-8,3-17.8,4.6-32.5c-3.9,9.3-8.6,18.3-15.3,28.9c-6.9-2.6-13.6-5.5-20.1-8.8
						c1.5-7.4,2.5-16.4,3.9-29.2c-3.4,8-7.3,15.8-12.6,24.5c-47.5-27.1-82.6-73.6-94.8-128.8c26.9,48.1,73.2,83.7,128.3,96
						c-2.5,10.8-5.4,19.8-8.8,28.3c9.3-11.5,15.3-19.2,19.6-26.2c6,1,12.1,1.7,18.2,2.1c-2.7,12.7-5.9,22.8-9.7,32.4
						c11.8-14.7,18.4-23.1,22.8-31.9c0.2,0,0.4,0,0.6,0c7,0,13.8-0.4,20.6-1.1c-3,15.1-6.4,26.5-10.7,37.3
						c15-18.7,21.6-27.3,26-39.5c6.4-1.2,12.6-2.7,18.8-4.5c-3.3,18.8-7.1,32-12,44.4c19.1-23.7,24.5-31.2,29.1-50.3
						c0.1,0,0.2-0.1,0.3-0.1c1.4-6.1,2.5-12.4,3.3-18.8c-3.6-0.2-7.3-0.5-10.9-0.9C494.4,270.3,415.9,218.5,369,145.2z"/>
				</g>
			</g>
		</g>
		<g>
			<g>
				<defs>
					<path id="SVGID_5_" d="M594.6,299.2c0.1,0,0.2-0.1,0.3-0.1c3.2-13.9,4.9-28.3,4.9-43.1c0-109-34.9-197.3-196-197.3
						c-5.7,0-6.4-0.4-12.1-0.1c-20.8-10.2-103.1-78-211.6-53.2c71.7,19.9,74.9,73.9,70.3,88.2c-51.9,21.3-87.2,48-118.9,105.4
						c-16.3,28-35.2,48.3-65.3,48.3c-29,0-42.5-21.8-58.9-55.4c-20.1,20.2,7.3,52.4,7.3,68.8c0,18-25.7,55.8-7.2,74.4
						c16.2-36.2,28.3-52.4,58.8-52.4c28.2,0,45.7-0.2,62.2,24.9c31.4,59.7,74,92.6,126.4,114.6c1.9,13.4,6,52.2-62.4,72
						c80.6,23.3,166.4-29.8,189.8-41.2c6.1,0.3,12.2,0.6,18.4,0.6l0,0c103.5,0,161.7-36.6,165.6-88.3c-4.8,0.6-9.7,0.9-14.6,1.1
						c0.9-5.8,1.6-13,2.6-23c-3.2,7.5-6.9,15-11.8,23.2c-8.6,0-17-0.6-25.3-1.8c1.4-7.3,2.4-16.1,3.7-28.5c-3.7,8.6-8,17.2-14,26.8
						c-6.9-1.3-13.7-3-20.4-5c1.9-8,3-17.8,4.6-32.5c-3.9,9.2-8.6,18.3-15.3,28.9c-6.9-2.6-13.6-5.5-20.1-8.8
						c1.5-7.4,2.5-16.4,3.9-29.2c-3.4,8-7.3,15.8-12.6,24.5c-47.5-27.1-82.6-73.6-94.8-128.8c26.9,48.1,73.2,83.7,128.3,96
						c-2.5,10.8-5.4,19.8-8.8,28.3c9.3-11.5,15.3-19.2,19.6-26.2c6,1,12.1,1.7,18.2,2.1c-2.7,12.7-5.9,22.8-9.7,32.4
						c11.8-14.7,18.4-23.1,22.8-32c0.2,0,0.4,0,0.6,0c7,0,13.8-0.4,20.6-1.1c-3,15.1-6.4,26.5-10.7,37.3c15-18.7,21.6-27.3,26-39.5
						c6.4-1.2,12.6-2.7,18.8-4.5c-3.3,18.8-7.1,32-12,44.4C584.6,325.7,590.1,318.2,594.6,299.2z"/>
				</defs>
				<clipPath id="SVGID_6_">
					<use xlink:href="#SVGID_5_"  style="overflow:visible;"/>
				</clipPath>
				
					<linearGradient id="SVGID_7_" gradientUnits="userSpaceOnUse" x1="484.3548" y1="647.2529" x2="484.3548" y2="901.2461" gradientTransform="matrix(1 0 0 1 0 -578)">
					<stop  offset="1.779359e-03" style="stop-color:#3DB2C6"/>
					<stop  offset="0.5" style="stop-color:#0C5E92"/>
					<stop  offset="1" style="stop-color:#1C4671"/>
				</linearGradient>
				<path class="st4" d="M517.5,80.9c-42.4,33-93.1,55.7-148.5,64.2c46.9,73.3,125.4,125.1,218.2,134.3c3.6,0.4,7.3,0.6,10.9,0.9
					c1-8,1.6-16.1,1.6-24.3C599.8,179.9,582.7,113.8,517.5,80.9z"/>
			</g>
		</g>
		<g>
			<g>
				<defs>
					<path id="SVGID_8_" d="M594.6,299.2c0.1,0,0.2-0.1,0.3-0.1c3.2-13.9,4.9-28.3,4.9-43.1c0-109-34.9-197.3-196-197.3
						c-5.7,0-6.4-0.4-12.1-0.1c-20.8-10.2-103.1-78-211.6-53.2c71.7,19.9,74.9,73.9,70.3,88.2c-51.9,21.3-87.2,48-118.9,105.4
						c-16.3,28-35.2,48.3-65.3,48.3c-29,0-42.5-21.8-58.9-55.4c-20.1,20.2,7.3,52.4,7.3,68.8c0,18-25.7,55.8-7.2,74.4
						c16.2-36.2,28.3-52.4,58.8-52.4c28.2,0,45.7-0.2,62.2,24.9c31.4,59.7,74,92.6,126.4,114.6c1.9,13.4,6,52.2-62.4,72
						c80.6,23.3,166.4-29.8,189.8-41.2c6.1,0.3,12.2,0.6,18.4,0.6l0,0c103.5,0,161.7-36.6,165.6-88.3c-4.8,0.6-9.7,0.9-14.6,1.1
						c0.9-5.8,1.6-13,2.6-23c-3.2,7.5-6.9,15-11.8,23.2c-8.6,0-17-0.6-25.3-1.8c1.4-7.3,2.4-16.1,3.7-28.5c-3.7,8.6-8,17.2-14,26.8
						c-6.9-1.3-13.7-3-20.4-5c1.9-8,3-17.8,4.6-32.5c-3.9,9.2-8.6,18.3-15.3,28.9c-6.9-2.6-13.6-5.5-20.1-8.8
						c1.5-7.4,2.5-16.4,3.9-29.2c-3.4,8-7.3,15.8-12.6,24.5c-47.5-27.1-82.6-73.6-94.8-128.8c26.9,48.1,73.2,83.7,128.3,96
						c-2.5,10.8-5.4,19.8-8.8,28.3c9.3-11.5,15.3-19.2,19.6-26.2c6,1,12.1,1.7,18.2,2.1c-2.7,12.7-5.9,22.8-9.7,32.4
						c11.8-14.7,18.4-23.1,22.8-32c0.2,0,0.4,0,0.6,0c7,0,13.8-0.4,20.6-1.1c-3,15.1-6.4,26.5-10.7,37.3c15-18.7,21.6-27.3,26-39.5
						c6.4-1.2,12.6-2.7,18.8-4.5c-3.3,18.8-7.1,32-12,44.4C584.6,325.7,590.1,318.2,594.6,299.2z"/>
				</defs>
				<clipPath id="SVGID_9_">
					<use xlink:href="#SVGID_8_"  style="overflow:visible;"/>
				</clipPath>
				
					<linearGradient id="SVGID_10_" gradientUnits="userSpaceOnUse" x1="-0.2999" y1="837.8845" x2="307.6274" y2="837.8845" gradientTransform="matrix(1 0 0 1 0 -578)">
					<stop  offset="0" style="stop-color:#C2E1CE"/>
					<stop  offset="0.5" style="stop-color:#3DB2C6"/>
					<stop  offset="0.9964" style="stop-color:#0C5E92"/>
				</linearGradient>
				<path class="st5" d="M66,246.9c-29,0-42.6-21.8-58.9-55.4c-20.1,20.2,7.3,52.4,7.3,68.8c0,18-25.7,55.8-7.2,74.4
					c16.2-36.2,28.3-52.4,58.8-52.4c28.2,0,45.7-0.2,62.2,24.9c8.6,16.3,18.2,30.8,28.4,43.5c26.4-11.7,54.9-19.9,84.8-24.1
					c22.4-3.1,44.6-3.8,66.3-2.2c-32.8-68.3-88.7-123.6-157.3-155.3c-6.7,9-13,18.8-19,29.6C115.1,226.7,96.1,246.9,66,246.9z"/>
			</g>
		</g>
		<g>
			<g>
				<defs>
					<path id="SVGID_11_" d="M594.6,299.2c0.1,0,0.2-0.1,0.3-0.1c3.2-13.9,4.9-28.3,4.9-43.1c0-109-34.9-197.3-196-197.3
						c-5.7,0-6.4-0.4-12.1-0.1c-20.8-10.2-103.1-78-211.6-53.2c71.7,19.9,74.9,73.9,70.3,88.2c-51.9,21.3-87.2,48-118.9,105.4
						c-16.3,28-35.2,48.3-65.3,48.3c-29,0-42.5-21.8-58.9-55.4c-20.1,20.2,7.3,52.4,7.3,68.8c0,18-25.7,55.8-7.2,74.4
						c16.2-36.2,28.3-52.4,58.8-52.4c28.2,0,45.7-0.2,62.2,24.9c31.4,59.7,74,92.6,126.4,114.6c1.9,13.4,6,52.2-62.4,72
						c80.6,23.3,166.4-29.8,189.8-41.2c6.1,0.3,12.2,0.6,18.4,0.6l0,0c103.5,0,161.7-36.6,165.6-88.3c-4.8,0.6-9.7,0.9-14.6,1.1
						c0.9-5.8,1.6-13,2.6-23c-3.2,7.5-6.9,15-11.8,23.2c-8.6,0-17-0.6-25.3-1.8c1.4-7.3,2.4-16.1,3.7-28.5c-3.7,8.6-8,17.2-14,26.8
						c-6.9-1.3-13.7-3-20.4-5c1.9-8,3-17.8,4.6-32.5c-3.9,9.2-8.6,18.3-15.3,28.9c-6.9-2.6-13.6-5.5-20.1-8.8
						c1.5-7.4,2.5-16.4,3.9-29.2c-3.4,8-7.3,15.8-12.6,24.5c-47.5-27.1-82.6-73.6-94.8-128.8c26.9,48.1,73.2,83.7,128.3,96
						c-2.5,10.8-5.4,19.8-8.8,28.3c9.3-11.5,15.3-19.2,19.6-26.2c6,1,12.1,1.7,18.2,2.1c-2.7,12.7-5.9,22.8-9.7,32.4
						c11.8-14.7,18.4-23.1,22.8-32c0.2,0,0.4,0,0.6,0c7,0,13.8-0.4,20.6-1.1c-3,15.1-6.4,26.5-10.7,37.3c15-18.7,21.6-27.3,26-39.5
						c6.4-1.2,12.6-2.7,18.8-4.5c-3.3,18.8-7.1,32-12,44.4C584.6,325.7,590.1,318.2,594.6,299.2z"/>
				</defs>
				<clipPath id="SVGID_12_">
					<use xlink:href="#SVGID_11_"  style="overflow:visible;"/>
				</clipPath>
				<g class="st6">
					
						<linearGradient id="SVGID_13_" gradientUnits="userSpaceOnUse" x1="1036.8555" y1="1070.3273" x2="1219.2487" y2="1070.3273" gradientTransform="matrix(1.1693 0 0 1.1771 -904.7677 -860.7156)">
						<stop  offset="3.558719e-03" style="stop-color:#0C5E92"/>
						<stop  offset="0.5" style="stop-color:#3DB2C6"/>
						<stop  offset="1" style="stop-color:#C2E1CE"/>
					</linearGradient>
					<path class="st7" d="M307.6,324.3c20.6,42.9,32.2,91.1,32.2,142c0,1.5,0,6.3,0,7.8c19.4-7.3,34.5-17.4,42.2-21.2
						c6.1,0.3,12.2,0.6,18.4,0.6l0,0c52,0,92.5-9.2,120.5-25C466.7,368.6,390.7,330.2,307.6,324.3z"/>
					
						<radialGradient id="SVGID_14_" cx="1133.7488" cy="1020.0123" r="120.9901" gradientTransform="matrix(1.1693 0 0 1.1771 -904.7677 -860.7156)" gradientUnits="userSpaceOnUse">
						<stop  offset="0" style="stop-color:#0C5E92;stop-opacity:0"/>
						<stop  offset="0.8587" style="stop-color:#0C5E92;stop-opacity:0.8587"/>
						<stop  offset="1" style="stop-color:#0C5E92"/>
					</radialGradient>
					<path class="st8" d="M307.6,324.3c20.6,42.9,32.2,91.1,32.2,142c0,1.5,0,6.3,0,7.8c19.4-7.3,34.5-17.4,42.2-21.2
						c6.1,0.3,12.2,0.6,18.4,0.6l0,0c52,0,92.5-9.2,120.5-25C466.7,368.6,390.7,330.2,307.6,324.3z"/>
				</g>
			</g>
		</g>
		<g>
			<g>
				<defs>
					<path id="SVGID_15_" d="M594.6,299.2c0.1,0,0.2-0.1,0.3-0.1c3.2-13.9,4.9-28.3,4.9-43.1c0-109-34.9-197.3-196-197.3
						c-5.7,0-6.4-0.4-12.1-0.1c-20.8-10.2-103.1-78-211.6-53.2c71.7,19.9,74.9,73.9,70.3,88.2c-51.9,21.3-87.2,48-118.9,105.4
						c-16.3,28-35.2,48.3-65.3,48.3c-29,0-42.5-21.8-58.9-55.4c-20.1,20.2,7.3,52.4,7.3,68.8c0,18-25.7,55.8-7.2,74.4
						c16.2-36.2,28.3-52.4,58.8-52.4c28.2,0,45.7-0.2,62.2,24.9c31.4,59.7,74,92.6,126.4,114.6c1.9,13.4,6,52.2-62.4,72
						c80.6,23.3,166.4-29.8,189.8-41.2c6.1,0.3,12.2,0.6,18.4,0.6l0,0c103.5,0,161.7-36.6,165.6-88.3c-4.8,0.6-9.7,0.9-14.6,1.1
						c0.9-5.8,1.6-13,2.6-23c-3.2,7.5-6.9,15-11.8,23.2c-8.6,0-17-0.6-25.3-1.8c1.4-7.3,2.4-16.1,3.7-28.5c-3.7,8.6-8,17.2-14,26.8
						c-6.9-1.3-13.7-3-20.4-5c1.9-8,3-17.8,4.6-32.5c-3.9,9.2-8.6,18.3-15.3,28.9c-6.9-2.6-13.6-5.5-20.1-8.8
						c1.5-7.4,2.5-16.4,3.9-29.2c-3.4,8-7.3,15.8-12.6,24.5c-47.5-27.1-82.6-73.6-94.8-128.8c26.9,48.1,73.2,83.7,128.3,96
						c-2.5,10.8-5.4,19.8-8.8,28.3c9.3-11.5,15.3-19.2,19.6-26.2c6,1,12.1,1.7,18.2,2.1c-2.7,12.7-5.9,22.8-9.7,32.4
						c11.8-14.7,18.4-23.1,22.8-32c0.2,0,0.4,0,0.6,0c7,0,13.8-0.4,20.6-1.1c-3,15.1-6.4,26.5-10.7,37.3c15-18.7,21.6-27.3,26-39.5
						c6.4-1.2,12.6-2.7,18.8-4.5c-3.3,18.8-7.1,32-12,44.4C584.6,325.7,590.1,318.2,594.6,299.2z"/>
				</defs>
				<clipPath id="SVGID_16_">
					<use xlink:href="#SVGID_15_"  style="overflow:visible;"/>
				</clipPath>
				
					<linearGradient id="SVGID_17_" gradientUnits="userSpaceOnUse" x1="143.2196" y1="989.9857" x2="365.8516" y2="989.9857" gradientTransform="matrix(1 0 0 1 0 -578)">
					<stop  offset="3.558719e-03" style="stop-color:#0C5E92"/>
					<stop  offset="0.5" style="stop-color:#3DB2C6"/>
					<stop  offset="1" style="stop-color:#C2E1CE"/>
				</linearGradient>
				<path class="st9" d="M241.3,326.6c-30,4.2-58.4,12.4-84.8,24.1c27.2,33.6,60.1,55.5,98.2,71.4c0.8,10.6,5.3,51.2-62.4,72
					c53,16.5,108.5-2.1,147.6-19.9c0-1.5-0.1-6.3-0.1-7.8c0-50.9-11.6-99.1-32.2-142C285.9,322.8,263.7,323.4,241.3,326.6z"/>
			</g>
		</g>
		<g>
			<g>
				<defs>
					<path id="SVGID_18_" d="M594.6,299.2c0.1,0,0.2-0.1,0.3-0.1c3.2-13.9,4.9-28.3,4.9-43.1c0-109-34.9-197.3-196-197.3
						c-5.7,0-6.4-0.4-12.1-0.1c-20.8-10.2-103.1-78-211.6-53.2c71.7,19.9,74.9,73.9,70.3,88.2c-51.9,21.3-87.2,48-118.9,105.4
						c-16.3,28-35.2,48.3-65.3,48.3c-29,0-42.5-21.8-58.9-55.4c-20.1,20.2,7.3,52.4,7.3,68.8c0,18-25.7,55.8-7.2,74.4
						c16.2-36.2,28.3-52.4,58.8-52.4c28.2,0,45.7-0.2,62.2,24.9c31.4,59.7,74,92.6,126.4,114.6c1.9,13.4,6,52.2-62.4,72
						c80.6,23.3,166.4-29.8,189.8-41.2c6.1,0.3,12.2,0.6,18.4,0.6l0,0c103.5,0,161.7-36.6,165.6-88.3c-4.8,0.6-9.7,0.9-14.6,1.1
						c0.9-5.8,1.6-13,2.6-23c-3.2,7.5-6.9,15-11.8,23.2c-8.6,0-17-0.6-25.3-1.8c1.4-7.3,2.4-16.1,3.7-28.5c-3.7,8.6-8,17.2-14,26.8
						c-6.9-1.3-13.7-3-20.4-5c1.9-8,3-17.8,4.6-32.5c-3.9,9.2-8.6,18.3-15.3,28.9c-6.9-2.6-13.6-5.5-20.1-8.8
						c1.5-7.4,2.5-16.4,3.9-29.2c-3.4,8-7.3,15.8-12.6,24.5c-47.5-27.1-82.6-73.6-94.8-128.8c26.9,48.1,73.2,83.7,128.3,96
						c-2.5,10.8-5.4,19.8-8.8,28.3c9.3-11.5,15.3-19.2,19.6-26.2c6,1,12.1,1.7,18.2,2.1c-2.7,12.7-5.9,22.8-9.7,32.4
						c11.8-14.7,18.4-23.1,22.8-32c0.2,0,0.4,0,0.6,0c7,0,13.8-0.4,20.6-1.1c-3,15.1-6.4,26.5-10.7,37.3c15-18.7,21.6-27.3,26-39.5
						c6.4-1.2,12.6-2.7,18.8-4.5c-3.3,18.8-7.1,32-12,44.4C584.6,325.7,590.1,318.2,594.6,299.2z"/>
				</defs>
				<clipPath id="SVGID_19_">
					<use xlink:href="#SVGID_18_"  style="overflow:visible;"/>
				</clipPath>
				
					<linearGradient id="SVGID_20_" gradientUnits="userSpaceOnUse" x1="179.544" y1="652.3359" x2="436.5869" y2="652.3359" gradientTransform="matrix(1 0 0 1 0 -578)">
					<stop  offset="1.779359e-03" style="stop-color:#3DB2C6"/>
					<stop  offset="0.5" style="stop-color:#0C5E92"/>
					<stop  offset="1" style="stop-color:#1C4671"/>
				</linearGradient>
				<path class="st10" d="M369.1,145.2c-21.2-33.1-38.4-84.4-45.1-124.3C278-0.3,228.2-5.9,179.5,5.3c71.7,19.9,75.4,73.8,70.8,88.2
					c-22.5,9.2-37.2,16.4-56,30.4c38.2,15.9,81.1,25.1,125,25.1C336.2,149,352.8,147.7,369.1,145.2z"/>
			</g>
		</g>
		<g>
			<g>
				<defs>
					<path id="SVGID_21_" d="M594.6,299.2c0.1,0,0.2-0.1,0.3-0.1c3.2-13.9,4.9-28.3,4.9-43.1c0-109-34.9-197.3-196-197.3
						c-5.7,0-6.4-0.4-12.1-0.1c-20.8-10.2-103.1-78-211.6-53.2c71.7,19.9,74.9,73.9,70.3,88.2c-51.9,21.3-87.2,48-118.9,105.4
						c-16.3,28-35.2,48.3-65.3,48.3c-29,0-42.5-21.8-58.9-55.4c-20.1,20.2,7.3,52.4,7.3,68.8c0,18-25.7,55.8-7.2,74.4
						c16.2-36.2,28.3-52.4,58.8-52.4c28.2,0,45.7-0.2,62.2,24.9c31.4,59.7,74,92.6,126.4,114.6c1.9,13.4,6,52.2-62.4,72
						c80.6,23.3,166.4-29.8,189.8-41.2c6.1,0.3,12.2,0.6,18.4,0.6l0,0c103.5,0,161.7-36.6,165.6-88.3c-4.8,0.6-9.7,0.9-14.6,1.1
						c0.9-5.8,1.6-13,2.6-23c-3.2,7.5-6.9,15-11.8,23.2c-8.6,0-17-0.6-25.3-1.8c1.4-7.3,2.4-16.1,3.7-28.5c-3.7,8.6-8,17.2-14,26.8
						c-6.9-1.3-13.7-3-20.4-5c1.9-8,3-17.8,4.6-32.5c-3.9,9.2-8.6,18.3-15.3,28.9c-6.9-2.6-13.6-5.5-20.1-8.8
						c1.5-7.4,2.5-16.4,3.9-29.2c-3.4,8-7.3,15.8-12.6,24.5c-47.5-27.1-82.6-73.6-94.8-128.8c26.9,48.1,73.2,83.7,128.3,96
						c-2.5,10.8-5.4,19.8-8.8,28.3c9.3-11.5,15.3-19.2,19.6-26.2c6,1,12.1,1.7,18.2,2.1c-2.7,12.7-5.9,22.8-9.7,32.4
						c11.8-14.7,18.4-23.1,22.8-32c0.2,0,0.4,0,0.6,0c7,0,13.8-0.4,20.6-1.1c-3,15.1-6.4,26.5-10.7,37.3c15-18.7,21.6-27.3,26-39.5
						c6.4-1.2,12.6-2.7,18.8-4.5c-3.3,18.8-7.1,32-12,44.4C584.6,325.7,590.1,318.2,594.6,299.2z"/>
				</defs>
				<clipPath id="SVGID_22_">
					<use xlink:href="#SVGID_21_"  style="overflow:visible;"/>
				</clipPath>
				
					<linearGradient id="SVGID_23_" gradientUnits="userSpaceOnUse" x1="284.4297" y1="661.0074" x2="594.4735" y2="661.0074" gradientTransform="matrix(1 0 0 1 0 -578)">
					<stop  offset="1.779359e-03" style="stop-color:#3DB2C6"/>
					<stop  offset="0.5" style="stop-color:#0C5E92"/>
					<stop  offset="1" style="stop-color:#1C4671"/>
				</linearGradient>
				<path class="st11" d="M391.6,58.4c-9-4.4-38.8-27.9-67.6-37.5c6.7,39.9,23.7,91.1,44.9,124.2c55.3-8.6,106.1-31.3,148.5-64.2
					c-28.1-14.2-65.2-22.3-113.8-22.3C397.8,58.6,397.2,58.1,391.6,58.4z"/>
			</g>
		</g>
	</g>
	<g>
		<ellipse class="st12" cx="464.7" cy="209.2" rx="50.4" ry="50.8"/>
		<ellipse class="st0" cx="464.7" cy="209.2" rx="29.2" ry="29.4"/>
		<ellipse class="st12" cx="473.5" cy="200.4" rx="17.1" ry="17.2"/>
		<ellipse class="st12" cx="451.9" cy="221.9" rx="4" ry="4.1"/>
	</g>
</g>
</svg>
