<?xml version="1.0" encoding="utf-8"?>
<!-- Generator: Adobe Illustrator 26.5.0, SVG Export Plug-In . SVG Version: 6.00 Build 0)  -->
<svg version="1.1" id="Layer_1" xmlns="http://www.w3.org/2000/svg" xmlns:xlink="http://www.w3.org/1999/xlink" x="0px" y="0px"
	 viewBox="0 0 1920 1080" style="enable-background:new 0 0 1920 1080;" xml:space="preserve">
<style type="text/css">
	.st0{fill:#001129;}
	.st1{fill:url(#SVGID_1_);}
	.st2{clip-path:url(#SVGID_00000150818733077976807020000003660699087677572254_);}
	.st3{opacity:0.3;fill:#00D9D2;enable-background:new    ;}
	.st4{opacity:0.1;}
	.st5{fill:#48B8BC;}
	.st6{opacity:0.4;fill:#00D9D2;enable-background:new    ;}
	.st7{opacity:0.5;}
	.st8{fill:#00D9D2;}
	.st9{opacity:0.6;}
	.st10{opacity:0.7;}
	.st11{opacity:0.8;}
	.st12{opacity:0.9;}
	.st13{clip-path:url(#SVGID_00000067197084328757677020000016310403300786353060_);}
	.st14{clip-path:url(#SVGID_00000024707985156565840040000009541471428880763783_);}
</style>
<path class="st0" d="M1920,0H-6.7v1080H1920V0z"/>
<linearGradient id="SVGID_1_" gradientUnits="userSpaceOnUse" x1="1877.2759" y1="-136.7928" x2="1209.7869" y2="680.175" gradientTransform="matrix(1 0 0 -1 0 1530)">
	<stop  offset="0" style="stop-color:#0081AE"/>
	<stop  offset="1" style="stop-color:#0081AE;stop-opacity:0"/>
</linearGradient>
<path class="st1" d="M1920,0H-6.7v1080H1920V0z"/>
<g>
	<g>
		<defs>
			<rect id="SVGID_00000136411427671667530810000018432398317744767116_" x="-6.7" width="1926.7" height="1080"/>
		</defs>
		<clipPath id="SVGID_00000011026928978823465700000001923698761378963128_">
			<use xlink:href="#SVGID_00000136411427671667530810000018432398317744767116_"  style="overflow:visible;"/>
		</clipPath>
		<g style="clip-path:url(#SVGID_00000011026928978823465700000001923698761378963128_);">
			<path class="st3" d="M1784.8,395.9l-245.9-19.5l19.5-245.9l245.9,19.5L1784.8,395.9z M1542.1,373.6l239.8,19l19-239.8l-239.8-19
				L1542.1,373.6L1542.1,373.6z"/>
			<g class="st4">
				<path class="st5" d="M1770.3,407.1L1527.8,362l0.3-1.5l44.8-241.1l242.5,45.1L1770.3,407.1L1770.3,407.1z M1531.3,359.5
					l236.6,44l44-236.5l-236.5-44L1531.3,359.5z"/>
			</g>
			<path class="st6" d="M1770.3,407.1L1527.8,362l0.3-1.5l44.8-241.1l242.5,45.1L1770.3,407.1L1770.3,407.1z M1531.3,359.5l236.6,44
				l44-236.5l-236.5-44L1531.3,359.5z"/>
			<g class="st4">
				<path class="st5" d="M1754.7,416.6l-236.6-70.2l70.3-236.6l1.5,0.4l235,69.8l-0.4,1.5L1754.7,416.6L1754.7,416.6z M1522,344.3
					l230.6,68.4l68.4-230.6l-230.6-68.4L1522,344.3z"/>
			</g>
			<g class="st7">
				<path class="st8" d="M1754.7,416.6l-236.6-70.2l70.3-236.6l1.5,0.4l235,69.8l-0.4,1.5L1754.7,416.6L1754.7,416.6z M1522,344.3
					l230.6,68.4l68.4-230.6l-230.6-68.4L1522,344.3z"/>
			</g>
			<g class="st9">
				<path class="st8" d="M1832.8,196.5l-94.6,227.9l-227.9-94.5l94.6-227.9L1832.8,196.5z M1736.6,420.4l92.1-222.2L1606.6,106
					l-92.1,222.2L1736.6,420.4z"/>
			</g>
			<g class="st10">
				<path class="st8" d="M1721.5,430.3L1504.4,313l117.4-217.1l217,117.4L1721.5,430.3L1721.5,430.3z M1508.6,311.8l211.6,114.4
					l114.4-211.6L1623,100.3L1508.6,311.8z"/>
			</g>
			<g class="st4">
				<path class="st5" d="M1703.7,434.7L1500,295.3l0.9-1.3l138.5-202.3L1843,231.2L1703.7,434.7L1703.7,434.7z M1504.4,294.5
					l198.5,135.9l135.9-198.5L1640.3,96.1L1504.4,294.5z"/>
			</g>
			<g class="st11">
				<path class="st8" d="M1703.7,434.7L1500,295.3l0.9-1.3l138.5-202.3L1843,231.2L1703.7,434.7L1703.7,434.7z M1504.4,294.5
					l198.5,135.9l135.9-198.5L1640.3,96.1L1504.4,294.5z"/>
			</g>
			<g class="st4">
				<path class="st5" d="M1685.6,437.1l-188-159.9l159.9-188l1.1,1l186.7,158.9l-1,1.1L1685.6,437.1L1685.6,437.1z M1502,276.9
					l183.2,155.8L1841,249.5L1657.9,93.6L1502,276.9z"/>
			</g>
			<g class="st12">
				<path class="st8" d="M1685.6,437.1l-188-159.9l159.9-188l1.1,1l186.7,158.9l-1,1.1L1685.6,437.1L1685.6,437.1z M1502,276.9
					l183.2,155.8L1841,249.5L1657.9,93.6L1502,276.9z"/>
			</g>
			<path class="st8" d="M1846,267.4l-178.7,170.2l-170.2-178.7l178.7-170.2L1846,267.4z M1667.4,433.2l174.2-165.9L1675.7,93.1
				L1501.5,259L1667.4,433.2L1667.4,433.2z"/>
		</g>
	</g>
	<g>
		<defs>
			<rect id="SVGID_00000075865878446752729370000010602083195543292089_" x="-6.7" width="1926.7" height="1080"/>
		</defs>
		<clipPath id="SVGID_00000109738637055403220480000004527472707289915061_">
			<use xlink:href="#SVGID_00000075865878446752729370000010602083195543292089_"  style="overflow:visible;"/>
		</clipPath>
		<g style="clip-path:url(#SVGID_00000109738637055403220480000004527472707289915061_);">
			<path class="st3" d="M1473.4,64.3l-75.7-5.9l5.9-75.7l75.7,5.9L1473.4,64.3z M1398.7,57.4l73.7,5.8l5.8-73.7l-73.7-5.8
				L1398.7,57.4L1398.7,57.4z"/>
			<g class="st4">
				<path class="st5" d="M1468.9,67.7l-74.7-13.9l0.1-0.5l13.8-74.2L1482.8-7L1468.9,67.7L1468.9,67.7z M1395.4,53.1l72.8,13.5
					l13.5-72.8L1409-19.7L1395.4,53.1z"/>
			</g>
			<path class="st6" d="M1468.9,67.7l-74.7-13.9l0.1-0.5l13.8-74.2L1482.8-7L1468.9,67.7L1468.9,67.7z M1395.4,53.1l72.8,13.5
				l13.5-72.8L1409-19.7L1395.4,53.1z"/>
			<g class="st4">
				<path class="st5" d="M1464.1,70.6L1391.3,49l21.6-72.8l0.5,0.1l72.3,21.5l-0.1,0.5L1464.1,70.6L1464.1,70.6z M1392.5,48.4
					l70.9,21.1l21.1-70.9l-70.9-21L1392.5,48.4z"/>
			</g>
			<g class="st7">
				<path class="st8" d="M1464.1,70.6L1391.3,49l21.6-72.8l0.5,0.1l72.3,21.5l-0.1,0.5L1464.1,70.6L1464.1,70.6z M1392.5,48.4
					l70.9,21.1l21.1-70.9l-70.9-21L1392.5,48.4z"/>
			</g>
			<g class="st9">
				<path class="st8" d="M1488.2,2.9l-29,70.1L1389,44l29-70.1L1488.2,2.9z M1458.5,71.9l28.3-68.4l-68.4-28.3l-28.3,68.4
					L1458.5,71.9z"/>
			</g>
			<g class="st10">
				<path class="st8" d="M1453.9,74.9l-66.7-36l36-66.7l66.7,36.2L1453.9,74.9L1453.9,74.9z M1388.4,38.4l65.1,35.2l35.2-65.1
					l-65.1-35.2L1388.4,38.4z"/>
			</g>
			<g class="st4">
				<path class="st5" d="M1448.4,76.2l-62.6-42.8l0.2-0.3l42.6-62.2l62.6,42.9L1448.4,76.2L1448.4,76.2z M1387.1,33.1l61,41.8
					l41.8-61l-61.1-41.8L1387.1,33.1z"/>
			</g>
			<g class="st11">
				<path class="st8" d="M1448.4,76.2l-62.6-42.8l0.2-0.3l42.6-62.2l62.6,42.9L1448.4,76.2L1448.4,76.2z M1387.1,33.1l61,41.8
					l41.8-61l-61.1-41.8L1387.1,33.1z"/>
			</g>
			<g class="st4">
				<path class="st5" d="M1442.9,77L1385,27.8l49.2-57.9l0.3,0.3l57.4,48.9l-0.3,0.3L1442.9,77L1442.9,77z M1386.4,27.7l56.3,47.9
					l47.9-56.3l-56.3-47.9L1386.4,27.7z"/>
			</g>
			<g class="st12">
				<path class="st8" d="M1442.9,77L1385,27.8l49.2-57.9l0.3,0.3l57.4,48.9l-0.3,0.3L1442.9,77L1442.9,77z M1386.4,27.7l56.3,47.9
					l47.9-56.3l-56.3-47.9L1386.4,27.7z"/>
			</g>
			<path class="st8" d="M1492.3,24.7l-54.9,52.4L1385,22.2l54.9-52.4L1492.3,24.7z M1437.3,75.7l53.5-51.1l-51.1-53.5l-53.5,51
				L1437.3,75.7L1437.3,75.7z"/>
		</g>
	</g>
	<g>
		<defs>
			<rect id="SVGID_00000181062480769628777860000015811642858578112133_" x="-6.7" width="1926.7" height="1080"/>
		</defs>
		<clipPath id="SVGID_00000013874867559238740130000002191332792632462246_">
			<use xlink:href="#SVGID_00000181062480769628777860000015811642858578112133_"  style="overflow:visible;"/>
		</clipPath>
		<g style="clip-path:url(#SVGID_00000013874867559238740130000002191332792632462246_);">
			<path class="st3" d="M335,931.1l-376.9-29.9L-12,524.3l376.9,30L335,931.1z M-36.8,897l367.4,29.1l29.1-367.4L-7.7,529.6
				L-36.8,897L-36.8,897z"/>
			<g class="st4">
				<path class="st5" d="M312.8,948.3l-371.7-69.2l0.5-2.4l68.7-369.5L382,576.4L312.8,948.3L312.8,948.3z M-53.5,875.3l362.6,67.4
					l67.4-362.4L14.1,512.9L-53.5,875.3z"/>
			</g>
			<path class="st6" d="M312.8,948.3l-371.7-69.2l0.5-2.4l68.7-369.5L382,576.4L312.8,948.3L312.8,948.3z M-53.5,875.3l362.6,67.4
				l67.4-362.4L14.1,512.9L-53.5,875.3z"/>
			<g class="st4">
				<path class="st5" d="M288.9,962.9L-73.7,855.4L34,492.8l2.4,0.6l360.2,106.9l-0.6,2.4L288.9,962.9L288.9,962.9z M-67.7,852.1
					L285.7,957l104.9-353.4l-353.4-105L-67.7,852.1z"/>
			</g>
			<g class="st7">
				<path class="st8" d="M288.9,962.9L-73.7,855.4L34,492.8l2.4,0.6l360.2,106.9l-0.6,2.4L288.9,962.9L288.9,962.9z M-67.7,852.1
					L285.7,957l104.9-353.4l-353.4-105L-67.7,852.1z"/>
			</g>
			<g class="st9">
				<path class="st8" d="M408.6,625.7l-145,349.2L-85.6,830.1l145-349.2L408.6,625.7z M261.1,968.7l141.2-340.5L61.9,486.8
					L-79.3,827.3L261.1,968.7z"/>
			</g>
			<g class="st10">
				<path class="st8" d="M238,984L-94.7,804.1L85.2,471.4l332.5,179.9L238,984L238,984z M-88.2,802.4l324.1,175.3l175.3-324.2
					L87.1,478.2L-88.2,802.4z"/>
			</g>
			<g class="st4">
				<path class="st5" d="M210.8,990.6l-312.1-213.7l1.4-2l212.3-310l311.9,213.8L210.8,990.6L210.8,990.6z M-94.7,775.8l304.2,208.3
					l208.4-304.2L113.6,471.7L-94.7,775.8z"/>
			</g>
			<g class="st11">
				<path class="st8" d="M210.8,990.6l-312.1-213.7l1.4-2l212.3-310l311.9,213.8L210.8,990.6L210.8,990.6z M-94.7,775.8l304.2,208.3
					l208.4-304.2L113.6,471.7L-94.7,775.8z"/>
			</g>
			<g class="st4">
				<path class="st5" d="M183,994.3l-288.1-245.1l245.1-288l1.7,1.6l286.2,243.5l-1.6,1.7L183,994.3L183,994.3z M-98.3,748.8
					l280.8,238.8l238.8-280.8L140.5,468L-98.3,748.8z"/>
			</g>
			<g class="st12">
				<path class="st8" d="M183,994.3l-288.1-245.1l245.1-288l1.7,1.6l286.2,243.5l-1.6,1.7L183,994.3L183,994.3z M-98.3,748.8
					l280.8,238.8l238.8-280.8L140.5,468L-98.3,748.8z"/>
			</g>
			<path class="st8" d="M428.9,734.3L155,995.1l-260.9-273.9L168,460.4L428.9,734.3z M155.1,988.4l267-254.2l-254.2-267l-267,254.2
				L155.1,988.4L155.1,988.4z"/>
		</g>
	</g>
</g>
</svg>
