<?xml version="1.0" encoding="utf-8"?>
<!-- Generator: Adobe Illustrator 23.0.6, SVG Export Plug-In . SVG Version: 6.00 Build 0)  -->
<svg version="1.1" id="Layer_1" xmlns="http://www.w3.org/2000/svg" xmlns:xlink="http://www.w3.org/1999/xlink" x="0px" y="0px"
	 viewBox="0 0 1920 1080" style="enable-background:new 0 0 1920 1080;" xml:space="preserve">
<style type="text/css">
	.st0{fill:url(#SVGID_1_);}
	.st1{fill:url(#SVGID_2_);}
	.st2{fill:url(#SVGID_3_);}
	.st3{fill:url(#SVGID_4_);}
	.st4{fill:url(#SVGID_5_);}
	.st5{fill:url(#SVGID_6_);}
	.st6{fill:url(#SVGID_7_);}
	.st7{fill:url(#SVGID_8_);}
	.st8{fill:url(#SVGID_9_);}
	.st9{fill:url(#SVGID_10_);}
	.st10{fill:url(#SVGID_11_);}
	.st11{fill:url(#SVGID_12_);}
	.st12{fill:#006878;}
	.st13{fill:url(#SVGID_13_);}
	.st14{fill:url(#SVGID_14_);}
	.st15{fill:url(#SVGID_15_);}
	.st16{fill:#001930;}
	.st17{fill:url(#SVGID_16_);}
	.st18{fill:url(#SVGID_17_);}
	.st19{fill:url(#SVGID_18_);}
	.st20{fill:url(#SVGID_19_);}
	.st21{fill:url(#SVGID_20_);}
	.st22{fill:url(#SVGID_21_);}
	.st23{fill:url(#SVGID_22_);}
	.st24{fill:url(#SVGID_23_);}
	.st25{fill:url(#SVGID_24_);}
	.st26{fill:url(#SVGID_25_);}
	.st27{fill:url(#SVGID_26_);}
	.st28{fill:url(#SVGID_27_);}
	.st29{fill:url(#SVGID_28_);}
	.st30{fill:url(#SVGID_29_);}
	.st31{fill:url(#SVGID_30_);}
	.st32{fill:url(#SVGID_31_);}
	.st33{fill:url(#SVGID_32_);}
	.st34{fill:url(#SVGID_33_);}
	.st35{fill:url(#SVGID_34_);}
	.st36{fill:url(#SVGID_35_);}
	.st37{fill:url(#SVGID_36_);}
	.st38{fill:url(#SVGID_37_);}
	.st39{fill:url(#SVGID_38_);}
	.st40{fill:url(#SVGID_39_);}
	.st41{fill:url(#SVGID_40_);}
	.st42{fill:url(#SVGID_41_);}
	.st43{fill:url(#SVGID_42_);}
	.st44{fill:url(#SVGID_43_);}
	.st45{fill:url(#SVGID_44_);}
	.st46{fill:url(#SVGID_45_);}
	.st47{fill:url(#SVGID_46_);}
	.st48{fill:url(#SVGID_47_);}
	.st49{fill:url(#SVGID_48_);}
	.st50{fill:url(#SVGID_49_);}
	.st51{fill:url(#SVGID_50_);}
	.st52{fill:url(#SVGID_51_);}
	.st53{fill:url(#SVGID_52_);}
	.st54{fill:url(#SVGID_53_);}
	.st55{fill:url(#SVGID_54_);}
	.st56{fill:url(#SVGID_55_);}
	.st57{fill:url(#SVGID_56_);}
	.st58{fill:url(#SVGID_57_);}
	.st59{fill:url(#SVGID_58_);}
	.st60{fill:url(#SVGID_59_);}
	.st61{fill:url(#SVGID_60_);}
	.st62{fill:url(#SVGID_61_);}
	.st63{fill:url(#SVGID_62_);}
</style>
<g>
	<linearGradient id="SVGID_1_" gradientUnits="userSpaceOnUse" x1="584.3652" y1="265.1125" x2="714.6017" y2="265.1125">
		<stop  offset="0" style="stop-color:#001225"/>
		<stop  offset="1" style="stop-color:#18354F"/>
	</linearGradient>
	<polygon class="st0" points="584.4,308.6 585.1,308.9 702.6,461.8 714.6,68.4 714.5,68.4 584.6,308.4 	"/>
	<linearGradient id="SVGID_2_" gradientUnits="userSpaceOnUse" x1="969.6017" y1="265.1701" x2="702.6207" y2="265.1701">
		<stop  offset="0" style="stop-color:#001930"/>
		<stop  offset="1" style="stop-color:#1F4465"/>
	</linearGradient>
	<polygon class="st1" points="702.6,461.8 702.9,462.1 703,462.1 969.6,311.4 715.1,68.2 714.5,68.4 714.5,68.4 714.6,68.4 	"/>
	<linearGradient id="SVGID_3_" gradientUnits="userSpaceOnUse" x1="353.6017" y1="386.9818" x2="702.6207" y2="386.9818">
		<stop  offset="0" style="stop-color:#001225"/>
		<stop  offset="1" style="stop-color:#18354F"/>
	</linearGradient>
	<polygon class="st2" points="702.6,462.3 702.6,461.8 585.1,308.9 584.4,308.6 353.6,465.4 702.5,462.4 	"/>
	<linearGradient id="SVGID_4_" gradientUnits="userSpaceOnUse" x1="336.9761" y1="376.5157" x2="584.3652" y2="376.5157">
		<stop  offset="0" style="stop-color:#001930"/>
		<stop  offset="1" style="stop-color:#1F4465"/>
	</linearGradient>
	<polygon class="st3" points="337,287.6 353.6,465.4 584.4,308.6 	"/>
	<linearGradient id="SVGID_5_" gradientUnits="userSpaceOnUse" x1="702.6044" y1="462.0705" x2="702.8961" y2="462.0705">
		<stop  offset="0" style="stop-color:#001225"/>
		<stop  offset="1" style="stop-color:#18354F"/>
	</linearGradient>
	<polygon class="st4" points="702.9,462.1 702.6,461.8 702.6,462.3 	"/>
	<linearGradient id="SVGID_6_" gradientUnits="userSpaceOnUse" x1="702.467" y1="462.3657" x2="702.6044" y2="462.3657">
		<stop  offset="0" style="stop-color:#001225"/>
		<stop  offset="1" style="stop-color:#18354F"/>
	</linearGradient>
	<polygon class="st5" points="702.6,462.4 702.6,462.3 702.5,462.4 	"/>
	<linearGradient id="SVGID_7_" gradientUnits="userSpaceOnUse" x1="336.5734" y1="287.4429" x2="337.0099" y2="287.4429">
		<stop  offset="0" style="stop-color:#001225"/>
		<stop  offset="1" style="stop-color:#18354F"/>
	</linearGradient>
	<polygon class="st6" points="337,287.4 336.9,287.3 336.6,287.4 336.6,287.4 337,287.6 	"/>
	<linearGradient id="SVGID_8_" gradientUnits="userSpaceOnUse" x1="714.5269" y1="188.4987" x2="336.9223" y2="188.4987">
		<stop  offset="0" style="stop-color:#001930"/>
		<stop  offset="1" style="stop-color:#1F4465"/>
	</linearGradient>
	<polygon class="st7" points="337,287.6 584.4,308.6 584.6,308.4 714.5,68.4 336.9,287.3 337,287.4 	"/>
	<linearGradient id="SVGID_9_" gradientUnits="userSpaceOnUse" x1="336.5376" y1="287.423" x2="336.6017" y2="287.423">
		<stop  offset="0" style="stop-color:#001225"/>
		<stop  offset="1" style="stop-color:#18354F"/>
	</linearGradient>
	<polygon class="st8" points="336.5,287.4 336.6,287.4 336.6,287.4 	"/>
	<linearGradient id="SVGID_10_" gradientUnits="userSpaceOnUse" x1="1371.6017" y1="245.9014" x2="1778.6017" y2="245.9014">
		<stop  offset="0" style="stop-color:#001225"/>
		<stop  offset="1" style="stop-color:#18354F"/>
	</linearGradient>
	<polygon class="st9" points="1776.6,241.4 1371.6,134.4 1778.6,357.4 	"/>
	<linearGradient id="SVGID_11_" gradientUnits="userSpaceOnUse" x1="336.6017" y1="287.2444" x2="336.9223" y2="287.2444">
		<stop  offset="0" style="stop-color:#001225"/>
		<stop  offset="1" style="stop-color:#18354F"/>
	</linearGradient>
	<polygon class="st10" points="336.8,287.1 336.6,287.4 336.9,287.3 	"/>
	<linearGradient id="SVGID_12_" gradientUnits="userSpaceOnUse" x1="1143.3971" y1="177.033" x2="1371.6017" y2="177.033">
		<stop  offset="0" style="stop-color:#001930"/>
		<stop  offset="1" style="stop-color:#1F4465"/>
	</linearGradient>
	<polygon class="st11" points="1168.4,285.2 1171.6,284.4 1371.6,134.4 1286.6,68.9 1143.4,179.9 1170.6,280.4 	"/>
	<polygon class="st12" points="1170.6,280.4 1143.4,179.9 969.6,311.4 1168.4,285.2 	"/>
	<linearGradient id="SVGID_13_" gradientUnits="userSpaceOnUse" x1="1920.1017" y1="1005.4589" x2="1812.3934" y2="1005.4589">
		<stop  offset="0" style="stop-color:#001930"/>
		<stop  offset="1" style="stop-color:#1F4465"/>
	</linearGradient>
	<polygon class="st13" points="1829.8,960.5 1812.4,1079.9 1920.1,1079.9 1920.1,931 1829.6,959.4 	"/>
	<linearGradient id="SVGID_14_" gradientUnits="userSpaceOnUse" x1="1829.3821" y1="959.9399" x2="1829.7811" y2="959.9399">
		<stop  offset="0" style="stop-color:#001225"/>
		<stop  offset="1" style="stop-color:#18354F"/>
	</linearGradient>
	<polygon class="st14" points="1829.8,960.5 1829.6,959.4 1829.4,959.8 	"/>
	<linearGradient id="SVGID_15_" gradientUnits="userSpaceOnUse" x1="1829.33" y1="959.6117" x2="1829.6017" y2="959.6117">
		<stop  offset="0" style="stop-color:#001225"/>
		<stop  offset="1" style="stop-color:#18354F"/>
	</linearGradient>
	<polygon class="st15" points="1829.6,959.4 1829.3,959.7 1829.4,959.8 	"/>
	<polygon class="st16" points="1286.6,68.9 1381.4,-0.1 1304.1,-0.1 1285.6,67.4 	"/>
	<linearGradient id="SVGID_16_" gradientUnits="userSpaceOnUse" x1="1776.6017" y1="120.6514" x2="1371.6017" y2="120.6514">
		<stop  offset="0" style="stop-color:#001225"/>
		<stop  offset="1" style="stop-color:#18354F"/>
	</linearGradient>
	<polygon class="st17" points="1776.6,241.4 1746.4,-0.1 1433,-0.1 1371.6,134.4 	"/>
	<linearGradient id="SVGID_17_" gradientUnits="userSpaceOnUse" x1="1286.5729" y1="67.1514" x2="1432.9635" y2="67.1514">
		<stop  offset="0" style="stop-color:#001930"/>
		<stop  offset="1" style="stop-color:#1F4465"/>
	</linearGradient>
	<polygon class="st18" points="1371.6,134.4 1433,-0.1 1381.4,-0.1 1286.6,68.9 	"/>
	<polygon class="st12" points="1778.6,357.4 1920.1,279.3 1920.1,245.3 1776.6,241.4 	"/>
	<polygon class="st16" points="1920.1,245.3 1920.1,-0.1 1746.4,-0.1 1776.6,241.4 	"/>
	<linearGradient id="SVGID_18_" gradientUnits="userSpaceOnUse" x1="0.1017" y1="143.6647" x2="336.8021" y2="143.6647">
		<stop  offset="0" style="stop-color:#001225"/>
		<stop  offset="1" style="stop-color:#18354F"/>
	</linearGradient>
	<polygon class="st19" points="336.6,287.4 336.8,287.1 231.7,-0.1 0.1,-0.1 0.1,39.4 336.5,287.4 	"/>
	<linearGradient id="SVGID_19_" gradientUnits="userSpaceOnUse" x1="336.5376" y1="208.8541" x2="0.1017" y2="208.8541">
		<stop  offset="0" style="stop-color:#001225"/>
		<stop  offset="1" style="stop-color:#18354F"/>
	</linearGradient>
	<polygon class="st20" points="0.1,39.4 0.1,378.3 336.5,287.4 	"/>
	<polygon class="st16" points="525.4,-0.1 231.7,-0.1 336.8,287.1 	"/>
	<linearGradient id="SVGID_20_" gradientUnits="userSpaceOnUse" x1="715.1008" y1="155.6514" x2="1038.3149" y2="155.6514">
		<stop  offset="0" style="stop-color:#001225"/>
		<stop  offset="1" style="stop-color:#18354F"/>
	</linearGradient>
	<polygon class="st21" points="969.6,311.4 1038.3,-0.1 913.3,-0.1 715.1,68.2 	"/>
	<linearGradient id="SVGID_21_" gradientUnits="userSpaceOnUse" x1="1082.5453" y1="89.9114" x2="1304.1017" y2="89.9114">
		<stop  offset="0" style="stop-color:#001930"/>
		<stop  offset="1" style="stop-color:#1F4465"/>
	</linearGradient>
	<polygon class="st22" points="1286.6,68.9 1285.6,67.4 1304.1,-0.1 1082.5,-0.1 1143.4,179.9 	"/>
	<polygon class="st16" points="1143.4,179.9 1082.5,-0.1 1038.3,-0.1 969.6,311.4 	"/>
	<linearGradient id="SVGID_22_" gradientUnits="userSpaceOnUse" x1="336.8021" y1="143.5786" x2="715.1008" y2="143.5786">
		<stop  offset="0" style="stop-color:#001930"/>
		<stop  offset="1" style="stop-color:#1F4465"/>
	</linearGradient>
	<polygon class="st23" points="336.9,287.3 714.5,68.4 714.5,68.4 715.1,68.2 643.6,-0.1 525.4,-0.1 336.8,287.1 	"/>
	<linearGradient id="SVGID_23_" gradientUnits="userSpaceOnUse" x1="643.5908" y1="34.065" x2="913.2513" y2="34.065">
		<stop  offset="0" style="stop-color:#001930"/>
		<stop  offset="1" style="stop-color:#1F4465"/>
	</linearGradient>
	<polygon class="st24" points="913.3,-0.1 643.6,-0.1 715.1,68.2 	"/>
	<g>
		<polygon class="st16" points="969.6,311.4 703,462.1 702.9,462.1 795.9,661.7 		"/>
		<polygon class="st16" points="702.5,462.4 353.6,465.4 394.6,649.4 		"/>
		<linearGradient id="SVGID_24_" gradientUnits="userSpaceOnUse" x1="795.9183" y1="486.6514" x2="987.5616" y2="486.6514">
			<stop  offset="0" style="stop-color:#001225"/>
			<stop  offset="1" style="stop-color:#18354F"/>
		</linearGradient>
		<polygon class="st25" points="796.1,661.9 987.6,647.7 969.6,311.4 795.9,661.7 		"/>
		<linearGradient id="SVGID_25_" gradientUnits="userSpaceOnUse" x1="394.6017" y1="562.2566" x2="795.9183" y2="562.2566">
			<stop  offset="0" style="stop-color:#001930"/>
			<stop  offset="1" style="stop-color:#1F4465"/>
		</linearGradient>
		<polygon class="st26" points="795.6,662.4 795.9,661.7 702.9,462.1 702.6,462.3 702.6,462.4 702.5,462.4 394.6,649.4 		"/>
		<polygon class="st16" points="714.6,902.4 795.6,662.4 389.6,973.4 		"/>
		<linearGradient id="SVGID_26_" gradientUnits="userSpaceOnUse" x1="389.6017" y1="811.4014" x2="795.6017" y2="811.4014">
			<stop  offset="0" style="stop-color:#001225"/>
			<stop  offset="1" style="stop-color:#18354F"/>
		</linearGradient>
		<polygon class="st27" points="795.6,662.4 394.6,649.4 389.6,973.4 		"/>
		<linearGradient id="SVGID_27_" gradientUnits="userSpaceOnUse" x1="714.6017" y1="775.0604" x2="987.6017" y2="775.0604">
			<stop  offset="0" style="stop-color:#001225"/>
			<stop  offset="1" style="stop-color:#18354F"/>
		</linearGradient>
		<polygon class="st28" points="715.1,902.5 987.6,648.4 987.6,647.7 796.1,661.9 795.9,661.7 795.6,662.4 714.6,902.4 		"/>
		<polygon class="st16" points="715.1,902.5 1085.6,828.4 987.6,648.4 		"/>
		<linearGradient id="SVGID_28_" gradientUnits="userSpaceOnUse" x1="283.6017" y1="811.4014" x2="394.6017" y2="811.4014">
			<stop  offset="0" style="stop-color:#001225"/>
			<stop  offset="1" style="stop-color:#18354F"/>
		</linearGradient>
		<polygon class="st29" points="394.6,649.4 283.6,802.4 389.6,973.4 		"/>
		<linearGradient id="SVGID_29_" gradientUnits="userSpaceOnUse" x1="146.6017" y1="435.423" x2="353.6017" y2="435.423">
			<stop  offset="0" style="stop-color:#001930"/>
			<stop  offset="1" style="stop-color:#1F4465"/>
		</linearGradient>
		<polygon class="st30" points="353.6,465.4 337,287.6 336.6,287.4 146.6,583.4 		"/>
		<linearGradient id="SVGID_30_" gradientUnits="userSpaceOnUse" x1="146.6017" y1="557.4014" x2="394.6017" y2="557.4014">
			<stop  offset="0" style="stop-color:#001225"/>
			<stop  offset="1" style="stop-color:#18354F"/>
		</linearGradient>
		<polygon class="st31" points="394.6,649.4 353.6,465.4 146.6,583.4 		"/>
		<linearGradient id="SVGID_31_" gradientUnits="userSpaceOnUse" x1="146.6017" y1="692.9014" x2="394.6017" y2="692.9014">
			<stop  offset="0" style="stop-color:#001225"/>
			<stop  offset="1" style="stop-color:#18354F"/>
		</linearGradient>
		<polygon class="st32" points="146.6,583.4 283.6,802.4 394.6,649.4 		"/>
		<polygon class="st12" points="44.4,603.9 283.6,802.4 146.6,583.4 		"/>
		<linearGradient id="SVGID_32_" gradientUnits="userSpaceOnUse" x1="220.7579" y1="905.9919" x2="389.6017" y2="905.9919">
			<stop  offset="0" style="stop-color:#001225"/>
			<stop  offset="1" style="stop-color:#18354F"/>
		</linearGradient>
		<polygon class="st33" points="221.1,1009.6 389.6,973.4 283.6,802.4 220.8,1009.5 221,1009.5 		"/>
		<linearGradient id="SVGID_33_" gradientUnits="userSpaceOnUse" x1="220.6656" y1="1009.6263" x2="221.0707" y2="1009.6263">
			<stop  offset="0" style="stop-color:#001225"/>
			<stop  offset="1" style="stop-color:#18354F"/>
		</linearGradient>
		<polygon class="st34" points="221,1009.5 220.8,1009.5 220.7,1009.7 221.1,1009.6 		"/>
		<linearGradient id="SVGID_34_" gradientUnits="userSpaceOnUse" x1="1623.6017" y1="692.7128" x2="1920.1017" y2="692.7128">
			<stop  offset="0" style="stop-color:#001225"/>
			<stop  offset="1" style="stop-color:#18354F"/>
		</linearGradient>
		<polygon class="st35" points="1920.1,752 1920.1,596 1623.6,789.4 		"/>
		<linearGradient id="SVGID_35_" gradientUnits="userSpaceOnUse" x1="1623.6017" y1="822.2014" x2="1920.1017" y2="822.2014">
			<stop  offset="0" style="stop-color:#001930"/>
			<stop  offset="1" style="stop-color:#1F4465"/>
		</linearGradient>
		<polygon class="st36" points="1920.1,892.4 1920.1,752 1623.6,789.4 		"/>
		<linearGradient id="SVGID_36_" gradientUnits="userSpaceOnUse" x1="1183.6017" y1="873.4894" x2="1184.2184" y2="873.4894">
			<stop  offset="0" style="stop-color:#001225"/>
			<stop  offset="1" style="stop-color:#18354F"/>
		</linearGradient>
		<polygon class="st37" points="1184.2,873.7 1184.2,873.3 1183.6,873.4 		"/>
		<linearGradient id="SVGID_37_" gradientUnits="userSpaceOnUse" x1="988.44" y1="754.2468" x2="1429.8459" y2="754.2468">
			<stop  offset="0" style="stop-color:#001225"/>
			<stop  offset="1" style="stop-color:#18354F"/>
		</linearGradient>
		<polygon class="st38" points="1429.8,636.4 1429.1,635.6 988.4,648.3 1184.1,872.9 		"/>
		<linearGradient id="SVGID_38_" gradientUnits="userSpaceOnUse" x1="1171.6017" y1="385.0019" x2="1430.5791" y2="385.0019">
			<stop  offset="0" style="stop-color:#001225"/>
			<stop  offset="1" style="stop-color:#18354F"/>
		</linearGradient>
		<polygon class="st39" points="1430.6,635.4 1371.6,134.4 1171.6,284.4 1429.1,635.6 		"/>
		<linearGradient id="SVGID_39_" gradientUnits="userSpaceOnUse" x1="1429.0924" y1="635.9243" x2="1430.6246" y2="635.9243">
			<stop  offset="0" style="stop-color:#001225"/>
			<stop  offset="1" style="stop-color:#18354F"/>
		</linearGradient>
		<polygon class="st40" points="1430.6,635.6 1430.6,635.4 1429.1,635.6 1429.8,636.4 		"/>
		<linearGradient id="SVGID_40_" gradientUnits="userSpaceOnUse" x1="987.6017" y1="648.1011" x2="988.44" y2="648.1011">
			<stop  offset="0" style="stop-color:#001225"/>
			<stop  offset="1" style="stop-color:#18354F"/>
		</linearGradient>
		<polygon class="st41" points="988.4,648.3 988.1,647.9 987.9,647.8 987.6,648.4 		"/>
		<polygon class="st16" points="1430.6,635.4 1778.6,357.4 1371.6,134.4 1430.6,635.4 		"/>
		<linearGradient id="SVGID_41_" gradientUnits="userSpaceOnUse" x1="987.5616" y1="648.0259" x2="987.885" y2="648.0259">
			<stop  offset="0" style="stop-color:#001225"/>
			<stop  offset="1" style="stop-color:#18354F"/>
		</linearGradient>
		<polygon class="st42" points="987.9,647.8 987.6,647.7 987.6,648.4 		"/>
		<polygon class="st16" points="988.1,647.9 988.4,648.3 1429.1,635.6 1171.6,284.4 1168.4,285.2 987.9,647.8 		"/>
		<linearGradient id="SVGID_42_" gradientUnits="userSpaceOnUse" x1="969.6017" y1="466.4782" x2="1168.3593" y2="466.4782">
			<stop  offset="0" style="stop-color:#001225"/>
			<stop  offset="1" style="stop-color:#18354F"/>
		</linearGradient>
		<polygon class="st43" points="987.9,647.8 1168.4,285.2 969.6,311.4 987.6,647.7 		"/>
		<linearGradient id="SVGID_43_" gradientUnits="userSpaceOnUse" x1="1623.6017" y1="534.3706" x2="1920.1017" y2="534.3706">
			<stop  offset="0" style="stop-color:#001930"/>
			<stop  offset="1" style="stop-color:#1F4465"/>
		</linearGradient>
		<polygon class="st44" points="1920.1,596 1920.1,279.3 1778.6,357.4 1623.6,789.4 		"/>
		<linearGradient id="SVGID_44_" gradientUnits="userSpaceOnUse" x1="192.6017" y1="1044.7419" x2="314.3486" y2="1044.7419">
			<stop  offset="0" style="stop-color:#001225"/>
			<stop  offset="1" style="stop-color:#18354F"/>
		</linearGradient>
		<polygon class="st45" points="220.7,1009.7 192.6,1079.9 314.3,1079.9 221.1,1009.6 		"/>
		<linearGradient id="SVGID_45_" gradientUnits="userSpaceOnUse" x1="221.0707" y1="1026.6514" x2="410.3359" y2="1026.6514">
			<stop  offset="0" style="stop-color:#001225"/>
			<stop  offset="1" style="stop-color:#18354F"/>
		</linearGradient>
		<polygon class="st46" points="221.1,1009.6 314.3,1079.9 410.3,1079.9 389.6,973.4 		"/>
		<polygon class="st16" points="410.3,1079.9 789.6,1079.9 389.6,973.4 		"/>
		<linearGradient id="SVGID_46_" gradientUnits="userSpaceOnUse" x1="1623.6017" y1="874.5688" x2="1920.1017" y2="874.5688">
			<stop  offset="0" style="stop-color:#001225"/>
			<stop  offset="1" style="stop-color:#18354F"/>
		</linearGradient>
		<polygon class="st47" points="1829.3,959.7 1829.6,959.4 1920.1,931 1920.1,892.4 1623.6,789.4 		"/>
		<linearGradient id="SVGID_47_" gradientUnits="userSpaceOnUse" x1="389.6017" y1="991.1514" x2="818.268" y2="991.1514">
			<stop  offset="0" style="stop-color:#001225"/>
			<stop  offset="1" style="stop-color:#18354F"/>
		</linearGradient>
		<polygon class="st48" points="715.1,902.5 714.6,902.4 389.6,973.4 789.6,1079.9 818.3,1079.9 		"/>
		<polygon class="st16" points="42,1079.9 192.6,1079.9 220.7,1009.7 		"/>
		<polygon class="st16" points="283.6,802.4 0.1,945.3 0.1,982 220.8,1009.5 		"/>
		<linearGradient id="SVGID_48_" gradientUnits="userSpaceOnUse" x1="0.1017" y1="774.6135" x2="283.6017" y2="774.6135">
			<stop  offset="0" style="stop-color:#001225"/>
			<stop  offset="1" style="stop-color:#18354F"/>
		</linearGradient>
		<polygon class="st49" points="44.4,603.9 0.1,612.9 0.1,945.3 283.6,802.4 		"/>
		<linearGradient id="SVGID_49_" gradientUnits="userSpaceOnUse" x1="0.1017" y1="1030.9312" x2="220.7579" y2="1030.9312">
			<stop  offset="0" style="stop-color:#001225"/>
			<stop  offset="1" style="stop-color:#18354F"/>
		</linearGradient>
		<polygon class="st50" points="220.7,1009.7 220.8,1009.5 0.1,982 0.1,1079.9 42,1079.9 		"/>
		<linearGradient id="SVGID_50_" gradientUnits="userSpaceOnUse" x1="715.1254" y1="991.1859" x2="820.4064" y2="991.1859">
			<stop  offset="0" style="stop-color:#001225"/>
			<stop  offset="1" style="stop-color:#18354F"/>
		</linearGradient>
		<polygon class="st51" points="820.4,1079.9 715.1,902.5 818.3,1079.9 		"/>
		<linearGradient id="SVGID_51_" gradientUnits="userSpaceOnUse" x1="715.1254" y1="954.25" x2="1085.6017" y2="954.25">
			<stop  offset="0" style="stop-color:#001225"/>
			<stop  offset="1" style="stop-color:#18354F"/>
		</linearGradient>
		<polygon class="st52" points="715.1,902.5 818.3,1079.9 820.4,1079.9 1038.6,1080.1 1085.6,828.4 		"/>
		<linearGradient id="SVGID_52_" gradientUnits="userSpaceOnUse" x1="0.1017" y1="591.4283" x2="44.4437" y2="591.4283">
			<stop  offset="0" style="stop-color:#001225"/>
			<stop  offset="1" style="stop-color:#18354F"/>
		</linearGradient>
		<polygon class="st53" points="0.1,570 0.1,612.9 44.4,603.9 		"/>
		<polygon class="st16" points="1676.7,1079.9 1757.3,1079.9 1829.8,960.5 1829.4,959.8 1829.3,959.7 1471.8,1079.9 		"/>
		<linearGradient id="SVGID_53_" gradientUnits="userSpaceOnUse" x1="1184.2184" y1="976.8049" x2="1428.5138" y2="976.8049">
			<stop  offset="0" style="stop-color:#001930"/>
			<stop  offset="1" style="stop-color:#1F4465"/>
		</linearGradient>
		<polygon class="st54" points="1214,1079.9 1428.5,1079.9 1184.2,873.7 		"/>
		<linearGradient id="SVGID_54_" gradientUnits="userSpaceOnUse" x1="987.6017" y1="760.8456" x2="1184.0929" y2="760.8456">
			<stop  offset="0" style="stop-color:#001930"/>
			<stop  offset="1" style="stop-color:#1F4465"/>
		</linearGradient>
		<polygon class="st55" points="1085.6,828.4 1183.6,873.4 1184.1,872.9 988.4,648.3 987.6,648.4 		"/>
		<linearGradient id="SVGID_55_" gradientUnits="userSpaceOnUse" x1="993.5665" y1="954.1514" x2="1214.0294" y2="954.1514">
			<stop  offset="0" style="stop-color:#001225"/>
			<stop  offset="1" style="stop-color:#18354F"/>
		</linearGradient>
		<polygon class="st56" points="1183.6,873.4 1085.6,828.4 993.6,1079.9 1214,1079.9 1184.2,873.7 		"/>
		<linearGradient id="SVGID_56_" gradientUnits="userSpaceOnUse" x1="1262.9041" y1="1009.9959" x2="1628.9475" y2="798.6606">
			<stop  offset="0" style="stop-color:#001930"/>
			<stop  offset="1" style="stop-color:#1F4465"/>
		</linearGradient>
		<polygon class="st57" points="1184.2,873.3 1184.2,873.7 1428.5,1079.9 1457.4,1079.9 1623.6,789.4 		"/>
		<polygon class="st16" points="1457.4,1079.9 1471.8,1079.9 1829.3,959.7 1623.6,789.4 		"/>
		<linearGradient id="SVGID_57_" gradientUnits="userSpaceOnUse" x1="1623.6017" y1="754.8574" x2="1184.0929" y2="754.8574">
			<stop  offset="0" style="stop-color:#001930"/>
			<stop  offset="1" style="stop-color:#1F4465"/>
		</linearGradient>
		<polygon class="st58" points="1184.1,872.9 1184.2,873.3 1623.6,789.4 1429.8,636.4 1184.1,872.9 		"/>
		<linearGradient id="SVGID_58_" gradientUnits="userSpaceOnUse" x1="1757.2863" y1="1020.1899" x2="1829.7811" y2="1020.1899">
			<stop  offset="0" style="stop-color:#001225"/>
			<stop  offset="1" style="stop-color:#18354F"/>
		</linearGradient>
		<polygon class="st59" points="1812.4,1079.9 1829.8,960.5 1757.3,1079.9 		"/>
		<linearGradient id="SVGID_59_" gradientUnits="userSpaceOnUse" x1="1183.6017" y1="873.1463" x2="1184.1552" y2="873.1463">
			<stop  offset="0" style="stop-color:#001225"/>
			<stop  offset="1" style="stop-color:#18354F"/>
		</linearGradient>
		<polygon class="st60" points="1184.1,872.9 1183.6,873.4 1184.2,873.3 1184.1,872.9 		"/>
		<linearGradient id="SVGID_60_" gradientUnits="userSpaceOnUse" x1="0.1017" y1="560.9734" x2="146.6017" y2="560.9734">
			<stop  offset="0" style="stop-color:#001930"/>
			<stop  offset="1" style="stop-color:#1F4465"/>
		</linearGradient>
		<polygon class="st61" points="146.6,583.4 0.1,518 0.1,570 44.4,603.9 		"/>
		<linearGradient id="SVGID_61_" gradientUnits="userSpaceOnUse" x1="1470.3616" y1="706.6193" x2="1852.7574" y2="485.8429">
			<stop  offset="0" style="stop-color:#001930"/>
			<stop  offset="1" style="stop-color:#1F4465"/>
		</linearGradient>
		<polygon class="st62" points="1430.6,635.4 1430.6,635.6 1429.8,636.4 1623.6,789.4 1778.6,357.4 1430.6,635.4 		"/>
		<polygon class="st16" points="336.6,287.4 336.5,287.4 0.1,378.3 0.1,518 146.6,583.4 		"/>
	</g>
</g>
<linearGradient id="SVGID_62_" gradientUnits="userSpaceOnUse" x1="715.5665" y1="954.0986" x2="1085.5665" y2="954.0986">
	<stop  offset="0" style="stop-color:#001225"/>
	<stop  offset="1" style="stop-color:#18354F"/>
</linearGradient>
<polygon class="st63" points="715.6,902.1 993.6,1080.1 1085.6,828.1 "/>
</svg>
