<?xml version="1.0" encoding="utf-8"?>
<!-- Generator: Adobe Illustrator 24.3.0, SVG Export Plug-In . SVG Version: 6.00 Build 0)  -->
<svg version="1.1" id="Layer_1" xmlns="http://www.w3.org/2000/svg" xmlns:xlink="http://www.w3.org/1999/xlink" x="0px" y="0px"
	 viewBox="0 0 1750 1080" style="enable-background:new 0 0 1750 1080;" xml:space="preserve">
<style type="text/css">
	.st0{fill:#001129;}
	.st1{clip-path:url(#SVGID_2_);}
	.st2{fill:url(#SVGID_3_);}
	.st3{clip-path:url(#SVGID_5_);}
	.st4{fill:url(#SVGID_6_);}
	.st5{clip-path:url(#SVGID_8_);}
	.st6{fill:url(#SVGID_9_);}
	.st7{clip-path:url(#SVGID_11_);}
	.st8{fill:url(#SVGID_12_);}
	.st9{clip-path:url(#SVGID_14_);fill:url(#SVGID_15_);}
	.st10{clip-path:url(#SVGID_17_);fill:url(#SVGID_18_);}
	.st11{clip-path:url(#SVGID_20_);}
	.st12{fill:url(#SVGID_21_);}
	.st13{clip-path:url(#SVGID_23_);fill:none;stroke:url(#SVGID_24_);stroke-width:3.0891;stroke-miterlimit:9.9998;}
	.st14{clip-path:url(#SVGID_26_);fill:url(#SVGID_27_);}
	.st15{clip-path:url(#SVGID_29_);}
	.st16{fill:url(#SVGID_30_);}
	.st17{clip-path:url(#SVGID_32_);}
	.st18{fill:url(#SVGID_33_);}
	.st19{clip-path:url(#SVGID_35_);}
	.st20{fill:url(#SVGID_36_);}
	.st21{clip-path:url(#SVGID_38_);}
	.st22{fill:url(#SVGID_39_);}
	.st23{clip-path:url(#SVGID_41_);}
	.st24{fill:url(#SVGID_42_);}
	.st25{clip-path:url(#SVGID_44_);}
	.st26{fill:url(#SVGID_45_);}
	.st27{clip-path:url(#SVGID_47_);}
	.st28{fill:url(#SVGID_48_);}
</style>
<rect class="st0" width="1750" height="1080"/>
<g>
	<g>
		<g>
			<defs>
				<rect id="SVGID_1_" width="1750" height="1080"/>
			</defs>
			<clipPath id="SVGID_2_">
				<use xlink:href="#SVGID_1_"  style="overflow:visible;"/>
			</clipPath>
			<g class="st1">
				
					<linearGradient id="SVGID_3_" gradientUnits="userSpaceOnUse" x1="883.3" y1="965.2" x2="3192.9001" y2="965.2" gradientTransform="matrix(1 0 0 1 0 780)">
					<stop  offset="0" style="stop-color:#006878"/>
					<stop  offset="1" style="stop-color:#00D9D2"/>
				</linearGradient>
				<path class="st2" d="M2038.1,2900L883.3,1745.2L2038.1,590.4l1154.8,1154.8L2038.1,2900z M887.5,1745.2l1150.6,1150.6
					l1150.6-1150.6L2038.1,594.6L887.5,1745.2z"/>
			</g>
		</g>
	</g>
	<g>
		<g>
			<defs>
				<rect id="SVGID_4_" width="1750" height="1080"/>
			</defs>
			<clipPath id="SVGID_5_">
				<use xlink:href="#SVGID_4_"  style="overflow:visible;"/>
			</clipPath>
			<g class="st3">
				
					<linearGradient id="SVGID_6_" gradientUnits="userSpaceOnUse" x1="921.3" y1="999.2" x2="3230.9001" y2="999.2" gradientTransform="matrix(1 0 0 1 0 780)">
					<stop  offset="0" style="stop-color:#006878"/>
					<stop  offset="1" style="stop-color:#00D9D2"/>
				</linearGradient>
				<path class="st4" d="M2076.1,2934L921.3,1779.2L2076.1,624.4l1154.8,1154.8L2076.1,2934z M925.5,1779.2l1150.6,1150.6
					l1150.6-1150.6L2076.1,628.6L925.5,1779.2z"/>
			</g>
		</g>
	</g>
	<g>
		<g>
			<defs>
				<rect id="SVGID_7_" width="1750" height="1080"/>
			</defs>
			<clipPath id="SVGID_8_">
				<use xlink:href="#SVGID_7_"  style="overflow:visible;"/>
			</clipPath>
			<g class="st5">
				
					<linearGradient id="SVGID_9_" gradientUnits="userSpaceOnUse" x1="905.3" y1="1089.2" x2="3214.9001" y2="1089.2" gradientTransform="matrix(1 0 0 1 0 780)">
					<stop  offset="0" style="stop-color:#006878"/>
					<stop  offset="1" style="stop-color:#00D9D2"/>
				</linearGradient>
				<path class="st6" d="M2060.1,3024L905.3,1869.2L2060.1,714.4l1154.8,1154.8L2060.1,3024z M909.5,1869.2l1150.6,1150.6
					l1150.6-1150.6L2060.1,718.6L909.5,1869.2z"/>
			</g>
		</g>
	</g>
	<g>
		<g>
			<defs>
				<rect id="SVGID_10_" width="1750" height="1080"/>
			</defs>
			<clipPath id="SVGID_11_">
				<use xlink:href="#SVGID_10_"  style="overflow:visible;"/>
			</clipPath>
			<g class="st7">
				
					<linearGradient id="SVGID_12_" gradientUnits="userSpaceOnUse" x1="1030.1001" y1="-802.8" x2="1212.5" y2="-802.8" gradientTransform="matrix(1 0 0 1 0 780)">
					<stop  offset="0" style="stop-color:#006878"/>
					<stop  offset="1" style="stop-color:#00D9D2"/>
				</linearGradient>
				<path class="st8" d="M1121.3,68.4l-91.2-91.2l91.2-91.2l91.2,91.2L1121.3,68.4z M1033.4-22.8l87.9,87.9l87.9-87.9l-87.9-87.9
					L1033.4-22.8z"/>
			</g>
		</g>
	</g>
	<g>
		<g>
			<defs>
				<rect id="SVGID_13_" width="1750" height="1080"/>
			</defs>
			<clipPath id="SVGID_14_">
				<use xlink:href="#SVGID_13_"  style="overflow:visible;"/>
			</clipPath>
			
				<linearGradient id="SVGID_15_" gradientUnits="userSpaceOnUse" x1="1643.1467" y1="-450.5" x2="1665.1467" y2="-450.5" gradientTransform="matrix(1 0 0 1 0 780)">
				<stop  offset="0" style="stop-color:#006878"/>
				<stop  offset="1" style="stop-color:#00D9D2"/>
			</linearGradient>
			<polygon class="st9" points="1665.1,329.5 1654.1,340.5 1643.1,329.5 1654.1,318.5 			"/>
		</g>
	</g>
	<g>
		<g>
			<defs>
				<rect id="SVGID_16_" width="1750" height="1080"/>
			</defs>
			<clipPath id="SVGID_17_">
				<use xlink:href="#SVGID_16_"  style="overflow:visible;"/>
			</clipPath>
			
				<linearGradient id="SVGID_18_" gradientUnits="userSpaceOnUse" x1="-218.2413" y1="1042.3109" x2="-194.6335" y2="1042.3109" gradientTransform="matrix(-2.5966 0 0 -2.5966 -480.3854 3025.0146)">
				<stop  offset="0" style="stop-color:#006878"/>
				<stop  offset="1" style="stop-color:#00D9D2"/>
			</linearGradient>
			<polygon class="st10" points="25,318.6 55.7,287.9 86.3,318.6 55.7,349.2 			"/>
		</g>
	</g>
	<g>
		<g>
			<defs>
				<rect id="SVGID_19_" width="1750" height="1080"/>
			</defs>
			<clipPath id="SVGID_20_">
				<use xlink:href="#SVGID_19_"  style="overflow:visible;"/>
			</clipPath>
			<g class="st11">
				
					<linearGradient id="SVGID_21_" gradientUnits="userSpaceOnUse" x1="74.0589" y1="-399.8" x2="107.0183" y2="-399.8" gradientTransform="matrix(1 0 0 1 0 780)">
					<stop  offset="0" style="stop-color:#006878"/>
					<stop  offset="1" style="stop-color:#00D9D2"/>
				</linearGradient>
				<path class="st12" d="M90.5,396.7L74,380.2l16.5-16.5l16.5,16.5L90.5,396.7z M76.2,380.2l14.3,14.3l14.3-14.3l-14.3-14.3
					L76.2,380.2z"/>
			</g>
		</g>
	</g>
	<g>
		<g>
			<defs>
				<rect id="SVGID_22_" x="1323.3" y="95.8" width="1080" height="1920"/>
			</defs>
			<clipPath id="SVGID_23_">
				<use xlink:href="#SVGID_22_"  style="overflow:visible;"/>
			</clipPath>
			
				<linearGradient id="SVGID_24_" gradientUnits="userSpaceOnUse" x1="2194.0386" y1="-14.4977" x2="2306.5957" y2="-14.4977" gradientTransform="matrix(0 -1 1 0 1599.052 2511.5195)">
				<stop  offset="0" style="stop-color:#006878"/>
				<stop  offset="1" style="stop-color:#00D9D2"/>
			</linearGradient>
			
				<rect x="1546.3" y="223" transform="matrix(0.7071 -0.7071 0.7071 0.7071 279.3768 1196.9663)" class="st13" width="76.5" height="76.5"/>
		</g>
	</g>
	<g>
		<g>
			<defs>
				<rect id="SVGID_25_" width="1750" height="1080"/>
			</defs>
			<clipPath id="SVGID_26_">
				<use xlink:href="#SVGID_25_"  style="overflow:visible;"/>
			</clipPath>
			
				<linearGradient id="SVGID_27_" gradientUnits="userSpaceOnUse" x1="1413.7" y1="142.6" x2="1458.7" y2="142.6" gradientTransform="matrix(1 0 0 1 0 780)">
				<stop  offset="0" style="stop-color:#006878"/>
				<stop  offset="1" style="stop-color:#00D9D2"/>
			</linearGradient>
			<polygon class="st14" points="1458.7,922.6 1436.2,945.1 1413.7,922.6 1436.2,900.1 			"/>
		</g>
	</g>
	<g>
		<g>
			<defs>
				<rect id="SVGID_28_" width="1750" height="1080"/>
			</defs>
			<clipPath id="SVGID_29_">
				<use xlink:href="#SVGID_28_"  style="overflow:visible;"/>
			</clipPath>
			<g class="st15">
				
					<linearGradient id="SVGID_30_" gradientUnits="userSpaceOnUse" x1="815.9" y1="-686.6" x2="885.9" y2="-686.6" gradientTransform="matrix(1 0 0 1 0 780)">
					<stop  offset="0" style="stop-color:#006878"/>
					<stop  offset="1" style="stop-color:#00D9D2"/>
				</linearGradient>
				<path class="st16" d="M850.9,128.4l-35-35l35-35l35,35L850.9,128.4z M819.3,93.4l31.6,31.6l31.6-31.6l-31.6-31.6L819.3,93.4z"/>
			</g>
		</g>
	</g>
	<g>
		<g>
			<defs>
				<rect id="SVGID_31_" width="1750" height="1080"/>
			</defs>
			<clipPath id="SVGID_32_">
				<use xlink:href="#SVGID_31_"  style="overflow:visible;"/>
			</clipPath>
			<g class="st17">
				
					<linearGradient id="SVGID_33_" gradientUnits="userSpaceOnUse" x1="988.6" y1="-802.8" x2="1254" y2="-802.8" gradientTransform="matrix(1 0 0 1 0 780)">
					<stop  offset="0" style="stop-color:#006878"/>
					<stop  offset="1" style="stop-color:#00D9D2"/>
				</linearGradient>
				<path class="st18" d="M1121.3,109.9L988.6-22.8l132.7-132.7L1254-22.8L1121.3,109.9z M991.9-22.8l129.4,129.4l129.4-129.4
					l-129.4-129.4L991.9-22.8z"/>
			</g>
		</g>
	</g>
	<g>
		<g>
			<defs>
				<rect id="SVGID_34_" width="1750" height="1080"/>
			</defs>
			<clipPath id="SVGID_35_">
				<use xlink:href="#SVGID_34_"  style="overflow:visible;"/>
			</clipPath>
			<g class="st19">
				
					<linearGradient id="SVGID_36_" gradientUnits="userSpaceOnUse" x1="552.6634" y1="828.2034" x2="817.2443" y2="828.2034" gradientTransform="matrix(-1.3168 0 0 -1.3168 2023.2473 1067.7782)">
					<stop  offset="0" style="stop-color:#006878"/>
					<stop  offset="1" style="stop-color:#00D9D2"/>
				</linearGradient>
				<path class="st20" d="M1121.3,151.4l-0.8-0.8L947.1-22.8l0.8-0.8L1121.3-197l0.8,0.8l173.4,173.4L1121.3,151.4z M950.4-22.8
					l171,171l171-171l-171-171L950.4-22.8z"/>
			</g>
		</g>
	</g>
	<g>
		<g>
			<defs>
				<rect id="SVGID_37_" width="1750" height="1080"/>
			</defs>
			<clipPath id="SVGID_38_">
				<use xlink:href="#SVGID_37_"  style="overflow:visible;"/>
			</clipPath>
			<g class="st21">
				
					<linearGradient id="SVGID_39_" gradientUnits="userSpaceOnUse" x1="905.6" y1="430.35" x2="1280.4" y2="430.35" gradientTransform="matrix(1 0 0 1 0 780)">
					<stop  offset="0" style="stop-color:#006878"/>
					<stop  offset="1" style="stop-color:#00D9D2"/>
				</linearGradient>
				<path class="st22" d="M1093,1397.7l-187.4-187.4L1093,1023l187.4,187.4L1093,1397.7z M908.7,1210.4l184.3,184.3l184.3-184.3
					L1093,1026L908.7,1210.4z"/>
			</g>
		</g>
	</g>
	<g>
		<g>
			<defs>
				<rect id="SVGID_40_" width="1750" height="1080"/>
			</defs>
			<clipPath id="SVGID_41_">
				<use xlink:href="#SVGID_40_"  style="overflow:visible;"/>
			</clipPath>
			<g class="st23">
				
					<linearGradient id="SVGID_42_" gradientUnits="userSpaceOnUse" x1="519.477" y1="-108.2714" x2="893.4138" y2="-108.2714" gradientTransform="matrix(-1.3168 0 0 -1.3168 2023.2473 1067.7782)">
					<stop  offset="0" style="stop-color:#006878"/>
					<stop  offset="1" style="stop-color:#00D9D2"/>
				</linearGradient>
				<path class="st24" d="M1093,1456.6l-246.2-246.2L1093,964.1l246.2,246.2L1093,1456.6z M849.8,1210.4l243.2,243.2l243.2-243.2
					L1093,967.1L849.8,1210.4z"/>
			</g>
		</g>
	</g>
	<g>
		<g>
			<defs>
				<rect id="SVGID_43_" width="1750" height="1080"/>
			</defs>
			<clipPath id="SVGID_44_">
				<use xlink:href="#SVGID_43_"  style="overflow:visible;"/>
			</clipPath>
			<g class="st25">
				
					<linearGradient id="SVGID_45_" gradientUnits="userSpaceOnUse" x1="1768.1646" y1="-537.6367" x2="2168.0334" y2="-537.6367" gradientTransform="matrix(0.3051 0 0 0.3051 -484.767 1001.1329)">
					<stop  offset="0" style="stop-color:#006878"/>
					<stop  offset="1" style="stop-color:#00D9D2"/>
				</linearGradient>
				<path class="st26" d="M115.7,898.1l-61-61l61-61l61,61L115.7,898.1z M57.8,837.1l57.9,57.9l57.9-57.9l-57.9-57.9L57.8,837.1z"/>
			</g>
		</g>
	</g>
	<g>
		<g>
			<defs>
				<rect id="SVGID_46_" width="1750" height="1080"/>
			</defs>
			<clipPath id="SVGID_47_">
				<use xlink:href="#SVGID_46_"  style="overflow:visible;"/>
			</clipPath>
			<g class="st27">
				
					<linearGradient id="SVGID_48_" gradientUnits="userSpaceOnUse" x1="1860.2998" y1="3591.8323" x2="2220.4985" y2="3591.8323" gradientTransform="matrix(-0.5236 0 0 -0.5236 1184.053 2717.7834)">
					<stop  offset="0" style="stop-color:#006878"/>
					<stop  offset="1" style="stop-color:#00D9D2"/>
				</linearGradient>
				<path class="st28" d="M115.7,931.4l-94.3-94.3l94.3-94.3l94.3,94.3L115.7,931.4z M24.9,837.1l90.7,90.7l90.7-90.7l-90.7-90.7
					L24.9,837.1z"/>
			</g>
		</g>
	</g>
</g>
</svg>
